<?xml version="1.0" standalone="no"?>
<!DOCTYPE svg PUBLIC "-//W3C//DTD SVG 1.1//EN" "http://www.w3.org/Graphics/SVG/1.1/DTD/svg11.dtd" >
<svg xmlns="http://www.w3.org/2000/svg">
<metadata>
This is a custom SVG webfont generated by Font Squirrel.
Copyright   : URW Software Copyright 1994 by URW
</metadata>
<defs>
<font id="VAGRundschriftDRegular" horiz-adv-x="1024" >
<font-face units-per-em="2048" ascent="1611" descent="-437" />
<missing-glyph horiz-adv-x="512" />
<glyph unicode=" "  horiz-adv-x="512" />
<glyph unicode="&#x09;" horiz-adv-x="512" />
<glyph unicode="&#xa0;" horiz-adv-x="512" />
<glyph unicode="!" horiz-adv-x="525" d="M95 135q0 72 56 123q47 43 115 43q71 0 121 -55q43 -48 43 -112q0 -75 -55 -125q-48 -43 -112 -43q-75 0 -125 55q-43 48 -43 114zM112 606v593q0 85 20 125q17 33 53.5 54t76.5 21t76.5 -21t53.5 -54q20 -40 20 -125v-593q0 -86 -20 -126q-17 -33 -53.5 -54t-76.5 -21 t-76.5 21t-53.5 54q-20 40 -20 126z" />
<glyph unicode="&#x22;" horiz-adv-x="901" d="M124 1043v163q0 73 17 107q14 28 45 46t66 18t66.5 -18t45.5 -46q17 -34 17 -107v-163q0 -72 -17 -107q-14 -28 -45.5 -46t-66.5 -18q-34 0 -65.5 18t-45.5 46q-17 34 -17 107zM520 1043v163q0 73 17 107q14 28 45 46t66 18t66.5 -18t45.5 -46q17 -34 17 -107v-163 q0 -72 -17 -107q-14 -28 -45.5 -46t-65.5 -18q-35 0 -66.5 18t-45.5 46q-17 34 -17 107z" />
<glyph unicode="#" horiz-adv-x="1147" d="M25 502q0 65 87 65h160l92 226h-107q-88 0 -88 67q0 66 88 66h160l73 180q25 61 69 61q25 0 43 -15q23 -20 23 -48q0 -17 -13 -48l-54 -130h230l73 179q25 62 71 62q24 0 42 -16q24 -19 24 -48q0 -17 -13 -48l-51 -129h100q88 0 88 -66q0 -67 -88 -67h-157l-91 -226h107 q87 0 87 -65t-87 -65h-160l-73 -183q-25 -63 -70 -63q-24 0 -43 15q-23 20 -23 48q0 17 13 49l53 134h-227l-74 -183q-26 -63 -71 -63q-25 0 -43 16q-24 20 -24 49q0 18 12 49l53 132h-104q-87 0 -87 65zM415 567h229l91 226h-228z" />
<glyph unicode="$" horiz-adv-x="1120" d="M80 204q0 57 39 102q41 46 100 46q32 0 63 -11l108 -36q84 -29 161 -29q82 0 129 52q33 36 33 86q0 69 -65 103q-53 28 -188 65q-146 40 -195 66q-101 54 -148 156q-35 74 -35 158q0 173 127 298q81 78 184 108q29 8 69 16v96q0 57 13 83q25 50 86 50q62 0 87 -50 q13 -26 13 -83v-94q287 -47 287 -190q0 -68 -52 -115q-37 -33 -93 -33q-36 0 -131 31q-62 20 -108 20q-64 0 -106 -31q-48 -35 -48 -85q0 -34 28 -62q21 -22 96 -42q230 -62 326 -121q177 -108 177 -324q0 -173 -102 -291q-82 -95 -208 -132q-29 -8 -66 -17v-108 q0 -57 -13 -83q-25 -50 -86 -50q-62 0 -87 50q-13 26 -13 83v97q-122 10 -223 47q-159 59 -159 174z" />
<glyph unicode="%" horiz-adv-x="1639" d="M32 953q0 177 66 292q42 73 109.5 114.5t145.5 41.5q103 0 188 -81q75 -71 106 -199q20 -79 20 -166q0 -167 -67 -290q-39 -69 -108 -114q-67 -42 -143 -42q-108 0 -193 81q-124 119 -124 363zM234 957q0 -256 115 -256q116 0 116 254q0 258 -118 258q-113 0 -113 -256z M476 55q0 26 18 72l471 1181q20 51 42 71q24 21 61 21q35 0 62 -23q35 -28 35 -70q0 -26 -18 -71l-472 -1182q-21 -51 -42 -70q-24 -21 -60 -21t-63 23q-34 28 -34 69zM974 435q0 177 66 292q42 73 109.5 114.5t145.5 41.5q103 0 188 -81q75 -71 106 -199q20 -79 20 -166 q0 -167 -67 -290q-39 -69 -108 -114q-67 -42 -143 -42q-108 0 -193 81q-124 119 -124 363zM1176 439q0 -256 115 -256q116 0 116 253q0 259 -118 259q-113 0 -113 -256z" />
<glyph unicode="&#x26;" horiz-adv-x="1371" d="M34 383q0 148 95 264q66 80 192 165q-121 131 -121 277q0 99 72 179q66 73 187 108q79 23 167 23q186 0 302 -95q102 -85 102 -221q0 -119 -95 -220q-64 -69 -169 -116l195 -210l114 121q42 44 97 44q52 0 89 -38q39 -39 39 -97q0 -46 -31 -90q-8 -11 -66 -75l-52 -59 l86 -87q75 -77 75 -135q0 -61 -44 -104q-43 -42 -102 -42q-43 0 -86 32q-15 11 -50 47l-92 95q-86 -71 -146 -103q-146 -80 -298 -80q-182 0 -318 109q-142 113 -142 308zM334 417q0 -74 50 -122q56 -55 136 -55q76 0 163 53q25 16 72 50l-273 286q-68 -48 -99 -83 q-49 -55 -49 -129zM514 1059q0 -40 35 -80l58 -68q58 28 84 49q53 42 53 95q0 50 -44 82q-30 21 -72 21q-48 0 -79 -26q-35 -29 -35 -73z" />
<glyph unicode="'" horiz-adv-x="505" d="M124 1043v163q0 73 17 107q14 28 45 46t66 18t66.5 -18t45.5 -46q17 -34 17 -107v-163q0 -72 -17 -107q-14 -28 -45.5 -46t-66.5 -18q-34 0 -65.5 18t-45.5 46q-17 34 -17 107z" />
<glyph unicode="(" horiz-adv-x="587" d="M107 549q0 299 75 565q63 221 111 271q33 35 87 35q48 0 84 -33q41 -37 41 -81q0 -27 -17 -73q-117 -328 -117 -687q0 -357 117 -686q17 -46 17 -73q0 -54 -54 -91q-32 -23 -73 -23q-53 0 -85 35q-48 50 -111 271q-75 263 -75 570z" />
<glyph unicode=")" horiz-adv-x="589" d="M82 -213q0 27 16 73q117 328 117 686q0 239 -44 439q-24 109 -73 248q-16 47 -16 74q0 52 53 90q32 23 76 23q50 0 83 -35q47 -50 110 -271q75 -264 75 -567q0 -304 -75 -568q-63 -221 -110 -271q-33 -35 -86 -35q-49 0 -86 33q-40 37 -40 81z" />
<glyph unicode="*" horiz-adv-x="791" d="M68 915q0 64 70 89l88 32l-100 40q-53 21 -53 78q0 47 33 84q30 34 76 34q31 0 55 -22l72 -68l-10 97q-2 23 -2 38q0 38 27 60q26 22 71 22q52 0 78 -28q20 -22 20 -54q0 -15 -2 -38l-10 -97l72 68q24 22 55 22q53 0 84 -43q25 -35 25 -75q0 -57 -53 -78l-100 -40l88 -32 q70 -25 70 -89q0 -53 -36 -85q-32 -28 -69 -28q-32 0 -53 17l-83 68l13 -90q2 -11 2 -23q0 -60 -37 -86q-29 -20 -64 -20q-43 0 -73 27q-28 25 -28 79q0 12 2 23l13 90l-83 -68q-21 -17 -53 -17q-45 0 -78 37q-27 30 -27 76z" />
<glyph unicode="+" horiz-adv-x="1092" d="M68 690q0 58 48 82q25 13 79 13h256v270q0 54 13 79q24 47 82 47t82 -47q13 -25 13 -79v-270h256q54 0 80 -13q47 -24 47 -82t-47 -82q-25 -13 -80 -13h-256v-270q0 -54 -13 -79q-24 -48 -82 -48t-82 48q-13 25 -13 79v270h-256q-54 0 -79 13q-48 24 -48 82z" />
<glyph unicode="," horiz-adv-x="547" d="M26 -157q0 35 19 68l184 320q39 68 119 68q66 0 107 -49q38 -44 38 -93q0 -33 -18 -64l-178 -320q-40 -72 -121 -72q-70 0 -113 48q-37 42 -37 94z" />
<glyph unicode="-" horiz-adv-x="505" d="M0 566q0 34 18 65.5t46 45.5q34 17 107 17h163q73 0 107 -17q28 -14 46 -45.5t18 -65.5q0 -35 -18 -66.5t-46 -45.5q-34 -17 -107 -17h-163q-72 0 -107 17q-28 14 -46 45.5t-18 66.5z" />
<glyph unicode="." horiz-adv-x="546" d="M106 135q0 72 56 123q47 43 115 43q71 0 121 -55q43 -48 43 -112q0 -75 -55 -125q-48 -43 -112 -43q-75 0 -125 55q-43 48 -43 114z" />
<glyph unicode="/" horiz-adv-x="916" d="M66 -205q0 27 22 81l586 1413q17 42 29 59q27 38 75 38q36 0 63 -23q33 -28 33 -68q0 -27 -22 -80l-585 -1413q-25 -59 -47 -78q-23 -20 -58 -20q-36 0 -63 23q-33 29 -33 68z" />
<glyph unicode="0" horiz-adv-x="1201" d="M97 679q0 367 168 560q70 80 170 124q83 36 170 36q118 0 234 -78q134 -90 206 -279q61 -164 61 -360q0 -166 -45 -310.5t-129 -245.5q-65 -78 -165 -123q-83 -37 -167 -37q-90 0 -180.5 43t-154.5 117q-168 193 -168 553zM418 682q0 -179 44 -291q22 -55 59.5 -86.5 t81.5 -31.5q43 0 79.5 35t58.5 97q44 125 44 275q0 160 -44 280q-48 132 -143 132q-40 0 -77 -32.5t-59 -85.5q-44 -111 -44 -292z" />
<glyph unicode="1" horiz-adv-x="724" d="M0 1227q0 37 19.5 70.5t49.5 48.5q36 19 114 19h176q71 1 107 -11q25 -9 49 -33t32 -49q12 -37 12 -107v-978q0 -88 -21 -129q-17 -34 -55 -56t-79 -22q-42 0 -80 22t-55 56q-21 41 -21 129v902h-65q-77 0 -114 19q-30 15 -49.5 48.5t-19.5 70.5z" />
<glyph unicode="2" horiz-adv-x="1065" d="M59 130q0 41 19 71q21 36 65 82q53 57 203.5 230t184.5 217q66 85 94 140q30 59 30 112q0 58 -42 97q-36 35 -89 35q-113 0 -150 -137q-30 -110 -55 -136q-35 -38 -95 -38q-72 0 -113 52q-31 38 -31 101q0 93 43 181.5t120 153.5q128 108 298 108q185 0 314 -123 q121 -116 121 -289q0 -128 -67 -253q-49 -91 -226 -291q-74 -85 -158 -167h296q78 0 115 -18q30 -16 49.5 -49.5t19.5 -70.5t-19.5 -70.5t-49.5 -48.5q-37 -19 -115 -19h-588q-72 0 -103 17q-71 37 -71 113z" />
<glyph unicode="3" horiz-adv-x="1133" d="M81 345q0 57 47 99q43 39 101 39q59 0 97 -42q10 -11 51 -83q32 -54 85 -81q42 -22 87 -22q79 0 131 53q44 46 44 122q0 75 -46 114q-39 32 -123 39q-78 7 -111 33q-49 40 -49 106q0 59 35 93q18 18 49 27q17 6 67 20q130 35 130 135q0 63 -49 93q-34 22 -76 22 q-82 0 -161 -89q-45 -51 -73 -65q-30 -16 -62 -16q-62 0 -101 48q-32 39 -32 88q0 52 28.5 106.5t77.5 95.5q67 55 157 87t178 32q167 0 281 -95q126 -104 126 -272q0 -126 -74 -211q-17 -19 -78 -67q66 -36 100.5 -65t64.5 -74q62 -90 62 -206q0 -203 -153 -331 q-134 -112 -330 -112q-164 0 -286 78q-89 57 -146 151q-49 80 -49 150z" />
<glyph unicode="4" horiz-adv-x="1092" d="M28 422q0 36 17 68l403 746q80 149 223 149q98 0 154 -67q57 -68 57 -162v-589h33q60 0 94 -28q49 -40 49 -104q0 -61 -50 -104q-43 -37 -108 -37h-18v-120q0 -83 -19 -121q-16 -32 -51.5 -52.5t-74.5 -20.5q-40 0 -75 20.5t-51 52.5q-20 38 -20 121v120h-397 q-77 0 -120 33q-46 35 -46 95zM365 567h226v430z" />
<glyph unicode="5" horiz-adv-x="1092" d="M68 235q0 65 47 111q38 38 92 38q32 0 69 -18q11 -5 87 -51q70 -42 154 -42q87 0 139 71q45 62 45 148q0 91 -51 145q-45 47 -120 47q-39 0 -78 -13q-9 -3 -85 -40q-30 -15 -67 -15q-46 0 -84 31q-42 34 -42 87q0 18 3 45l52 435q8 72 46.5 111.5t98.5 39.5h449 q78 0 115 -19q30 -15 49.5 -48.5t19.5 -70.5t-19.5 -70.5t-49.5 -48.5q-37 -19 -115 -19h-322l-19 -175q76 21 135 21q181 0 294 -122q111 -120 111 -318q0 -226 -128 -370q-142 -159 -373 -159q-194 0 -350 109q-103 71 -103 160z" />
<glyph unicode="6" horiz-adv-x="1092" d="M63 429q0 231 153 480q102 167 302 394q85 96 163 96q54 0 98 -38q47 -40 47 -97q0 -49 -39 -104q-10 -14 -88 -97q-49 -54 -159 -200q61 19 110 19q155 0 271 -109q135 -127 135 -324q0 -103 -39 -196.5t-109 -158.5q-137 -128 -350 -128q-189 0 -323 107 q-94 75 -139 188q-33 84 -33 168zM384 449q0 -72 51 -124t124 -52t125 52q51 51 51 123q0 74 -51 125q-53 51 -127 51q-71 0 -122 -51q-51 -52 -51 -124z" />
<glyph unicode="7" horiz-adv-x="1010" d="M27 1227q0 37 19.5 70.5t49.5 48.5q37 19 115 19h581q83 0 125 -43q45 -46 45 -115q0 -30 -25 -88l-445 -1016q-32 -75 -70 -102q-38 -28 -88 -28q-59 0 -106 39q-54 46 -54 103q0 45 16 80l409 894h-388q-78 0 -115 19q-30 15 -49.5 48.5t-19.5 70.5z" />
<glyph unicode="8" horiz-adv-x="1120" d="M57 413q0 116 55 206q42 68 136 131q-64 59 -89 104q-40 72 -40 162q0 178 136 287q120 96 305 96t305 -96q136 -109 136 -287q0 -104 -53 -183q-22 -33 -76 -83q94 -63 136 -131q55 -90 55 -206q0 -190 -131 -313q-67 -63 -165.5 -98.5t-206.5 -35.5t-206.5 35.5 t-165.5 98.5q-131 123 -131 313zM378 450q0 -81 60 -135q52 -47 122 -47q81 0 135 60q47 52 47 124q0 78 -60 133q-52 47 -125 47q-77 0 -132 -60q-47 -52 -47 -122zM421 996q0 -62 46 -103q40 -36 93 -36q62 0 103 46q36 39 36 94q0 60 -46 101q-39 36 -95 36 q-59 0 -101 -46q-36 -39 -36 -92z" />
<glyph unicode="9" horiz-adv-x="1092" d="M50 916q0 103 39 196.5t109 158.5q137 128 350 128q189 0 323 -107q94 -75 139 -188q33 -84 33 -168q0 -239 -153 -480q-114 -181 -302 -394q-85 -96 -164 -96q-54 0 -98 38q-47 40 -47 97q0 49 39 104q10 14 88 98q50 53 160 199q-62 -19 -110 -19q-155 0 -271 109 q-135 127 -135 324zM371 916q0 -72 51 -124q52 -51 125 -51t124 51q51 53 51 124q0 74 -51 125q-53 51 -126 51q-71 0 -123 -51q-51 -52 -51 -125z" />
<glyph unicode=":" horiz-adv-x="546" d="M106 135q0 72 56 123q47 43 115 43q71 0 121 -55q43 -48 43 -112q0 -75 -55 -125q-48 -43 -112 -43q-75 0 -125 55q-43 48 -43 114zM106 728q0 72 55 123q48 43 115 43q71 0 122 -55q43 -48 43 -112q0 -75 -56 -125q-48 -43 -112 -43q-74 0 -124 55q-43 48 -43 114z" />
<glyph unicode=";" horiz-adv-x="547" d="M26 -157q0 35 19 68l184 320q39 68 119 68q66 0 107 -49q38 -44 38 -93q0 -33 -18 -64l-178 -320q-40 -72 -121 -72q-70 0 -113 48q-37 42 -37 94zM153 729q0 72 56 123q47 43 115 43q71 0 121 -55q43 -48 43 -112q0 -75 -55 -125q-48 -43 -112 -43q-75 0 -125 55 q-43 48 -43 114z" />
<glyph unicode="&#x3c;" d="M68 588v218l887 450v-257l-613 -303l613 -303v-256z" />
<glyph unicode="=" horiz-adv-x="1092" d="M68 526q0 58 48 82q24 13 79 13h702q54 0 79 -13q48 -24 48 -82t-47 -82q-26 -13 -89 -13h-693q-54 0 -79 13q-48 24 -48 82zM68 867q0 58 48 82q24 13 79 13h702q54 0 79 -13q48 -23 48 -82q0 -58 -47 -82q-26 -13 -89 -13h-693q-54 0 -79 13q-48 24 -48 82z" />
<glyph unicode="&#x3e;" d="M68 136v257l613 303l-613 303v256l887 -451v-218z" />
<glyph unicode="?" horiz-adv-x="988" d="M34 1054q0 123 116 226q135 119 326 119q97 0 188 -32.5t156 -91.5q134 -120 134 -310q0 -185 -136 -302q-81 -70 -204 -97q1 -13 1 -19q0 -58 -20 -98q-17 -33 -53.5 -54t-76.5 -21q-41 0 -77.5 21t-53.5 54q-20 40 -20 125v97q0 60 25 88q22 24 51 32q16 4 53 10 q172 29 172 158q0 70 -55 106q-43 28 -94 28q-46 0 -82 -21.5t-73 -72.5q-35 -48 -55 -62q-35 -24 -79 -24q-62 0 -104 44q-39 39 -39 97zM295 135q0 72 56 123q47 43 114 43q71 0 122 -55q43 -48 43 -112q0 -75 -55 -125q-48 -43 -112 -43q-75 0 -125 55q-43 48 -43 114z " />
<glyph unicode="@" horiz-adv-x="1595" d="M109 670q0 206 110 386q105 173 283 262q152 77 333 77q266 0 447 -155q104 -89 157 -217q47 -111 47 -234q0 -211 -120 -357q-115 -139 -324 -139q-76 0 -113 35q-17 16 -33 59q-42 -45 -72 -62q-51 -28 -118 -28q-121 0 -205 83q-94 93 -94 245q0 182 105 304 q126 147 287 147q71 0 120 -34q23 -15 53 -52q44 81 118 81q42 0 70 -30q25 -27 25 -67q0 -8 -1 -14l-55 -448q-3 -26 -3 -32q0 -22 28 -22q40 0 81 47q42 48 67.5 126t25.5 157q0 202 -141 327q-133 119 -343 119q-237 0 -396 -161q-164 -167 -164 -405q0 -178 97 -321 q112 -167 310 -201q95 -17 189 -17q56 0 115 9q54 9 167 44q34 10 64 10q36 0 61 -26q20 -20 20 -46q0 -74 -111 -109q-135 -43 -338 -43q-274 0 -447 117q-143 97 -223 256q-79 156 -79 329zM625 652q0 -61 26 -101q35 -52 103 -52q84 0 139 83q37 55 37 144q0 62 -31 101 q-37 47 -101 47q-88 0 -137 -85q-36 -60 -36 -137z" />
<glyph unicode="A" horiz-adv-x="1243" d="M7 127q0 38 26 109l357 981q63 175 232 175q168 0 231 -175l357 -981q26 -71 26 -109q0 -84 -77 -129q-39 -22 -83 -22q-64 0 -103 45q-33 37 -56 121l-33 119h-525l-33 -119q-23 -84 -56 -121q-40 -45 -103 -45q-53 0 -97 32q-63 45 -63 119zM458 541h331l-165 519z" />
<glyph unicode="B" horiz-adv-x="1163" d="M96 228v910q0 63 4 89q12 65 66 106q44 32 120 32h38h274q130 0 205 -35q102 -49 154 -147q39 -72 39 -159q0 -127 -78 -207q-26 -28 -84 -63q112 -34 171 -86q111 -99 111 -261q0 -156 -102 -270q-123 -137 -316 -137h-374h-11q-73 0 -112 13q-28 10 -55 37t-37 55 q-13 39 -13 112v11zM410 273h216q71 0 100 18q65 41 65 125q0 151 -173 151h-208v-294zM410 847h157q61 0 98 38q34 35 34 91q0 52 -40 83q-43 33 -106 33h-143v-245z" />
<glyph unicode="C" horiz-adv-x="1171" d="M33 679q0 165 53.5 305t151.5 233q193 182 480 182q133 0 244 -42q157 -59 157 -178q0 -53 -30 -93q-35 -45 -97 -45q-37 0 -115 31q-85 34 -164 34q-141 0 -227 -85q-118 -117 -118 -344q0 -223 116 -332q91 -85 230 -85q80 0 126 21l93 41q37 16 71 16q54 0 92 -47 q34 -40 34 -95q0 -94 -97 -152q-130 -78 -319 -78q-287 0 -471 176q-210 202 -210 537z" />
<glyph unicode="D" horiz-adv-x="1304" d="M96 233v905q0 63 4 89q12 65 66 106q44 32 120 32h38h256q269 0 438 -124q130 -95 194 -255q58 -147 58 -312q0 -170 -60 -310.5t-172 -231.5q-163 -132 -397 -132h-14l-306 5q-80 0 -121 14q-28 10 -54.5 37t-36.5 55q-13 39 -13 112v10zM410 273h156q171 0 260 91 q109 112 109 320q0 213 -124 324q-60 54 -137 70q-65 14 -144 14h-120v-819z" />
<glyph unicode="E" horiz-adv-x="943" d="M96 228v909q0 64 4 90q11 64 66 106q44 32 120 32h38h379q79 0 116 -19q31 -15 50.5 -49t19.5 -72t-19.5 -72t-50.5 -49q-37 -19 -116 -19h-293v-260h261q80 0 117 -19q31 -15 50.5 -49t19.5 -72t-19.5 -72t-50.5 -49q-37 -19 -117 -19h-261v-265h293q79 0 116 -19 q31 -15 50.5 -49t19.5 -72t-19.5 -72t-50.5 -49q-37 -19 -116 -19h-379h-11q-73 0 -112 13q-28 10 -55 37t-37 55q-13 39 -13 112v11z" />
<glyph unicode="F" horiz-adv-x="935" d="M95 189v948q0 64 4 90q11 64 66 106q44 32 120 32h38h384q80 0 117 -19q31 -15 50.5 -49t19.5 -72t-19.5 -72t-50.5 -49q-38 -19 -117 -19h-298v-271h248q79 0 116 -19q31 -15 50.5 -49t19.5 -72t-19.5 -72t-50.5 -49q-37 -19 -116 -19h-248v-345q0 -89 -21 -131 q-17 -34 -55.5 -56t-80.5 -22t-80 22t-56 56q-21 42 -21 131z" />
<glyph unicode="G" horiz-adv-x="1372" d="M34 675q0 314 194 517q199 207 506 207q205 0 374 -99q138 -81 138 -185q0 -54 -41 -95q-43 -43 -97 -43q-37 0 -89 27q-11 6 -101 63q-35 23 -91.5 37.5t-106.5 14.5q-149 0 -245 -112q-106 -124 -106 -325q0 -213 115 -338q89 -98 242 -98q145 0 223 104q46 61 67 178 h-151q-79 0 -117 19q-31 15 -50.5 49t-19.5 72t20 72t50 49q37 19 117 19h305q80 0 118 -37q50 -48 50 -160q0 -272 -178 -461q-173 -184 -448 -184q-315 0 -506 218q-172 195 -172 491z" />
<glyph unicode="H" horiz-adv-x="1399" d="M95 189v987q0 89 21 131q18 34 56 56t80 22t80.5 -22t55.5 -56q21 -42 21 -131v-336h580v336q0 89 21 131q18 34 56 56t80 22t80.5 -22t55.5 -56q21 -42 21 -131v-987q0 -89 -21 -131q-17 -34 -55.5 -56t-80.5 -22t-80 22t-56 56q-21 42 -21 131v371h-580v-371 q0 -89 -21 -131q-17 -34 -55.5 -56t-80.5 -22t-80 22t-56 56q-21 42 -21 131z" />
<glyph unicode="I" horiz-adv-x="504" d="M95 189v987q0 89 21 131q18 34 56 56t80 22t80.5 -22t55.5 -56q21 -42 21 -131v-987q0 -89 -21 -131q-17 -34 -55.5 -56t-80.5 -22t-80 22t-56 56q-21 42 -21 131z" />
<glyph unicode="J" horiz-adv-x="830" d="M-27 181q0 64 47 109q39 38 100 38q40 0 99 -34q60 -35 96 -35q106 0 106 175v742q0 89 21 131q18 34 56 56t80 22t80.5 -22t55.5 -56q21 -42 21 -131v-742q0 -125 -21 -206.5t-69 -139.5q-47 -58 -129 -90t-181 -32q-157 0 -268 68q-94 59 -94 147z" />
<glyph unicode="K" horiz-adv-x="1229" d="M95 189v987q0 89 21 131q18 34 56 56t80 22t80.5 -22t55.5 -56q21 -42 21 -131v-349l403 452q44 48 66 65q53 42 105 42q60 0 106 -46q40 -40 40 -105q0 -60 -41 -112q-11 -15 -52 -56l-329 -334l416 -441q44 -47 60 -70q28 -43 28 -96q0 -75 -51 -116q-38 -31 -94 -31 q-66 0 -120 48q-14 12 -53 55l-484 531v-424q0 -89 -21 -131q-17 -34 -55.5 -56t-80.5 -22t-80 22t-56 56q-21 42 -21 131z" />
<glyph unicode="L" horiz-adv-x="848" d="M96 237v939q0 89 21 131q18 34 56 56t80 22t80.5 -22t55.5 -56q21 -42 21 -131v-896h293q79 0 116 -19q31 -15 50.5 -49t19.5 -72t-19.5 -72t-50.5 -49q-37 -19 -116 -19h-370h-10q-76 0 -117 14q-30 10 -58 38t-38 58q-14 40 -14 117v10z" />
<glyph unicode="M" horiz-adv-x="1667" d="M25 137q0 24 9 77l162 993q14 85 61 126q61 53 149 53q74 0 128 -40q48 -35 67 -94l230 -703l211 673q25 80 85 124q53 39 122 39q79 0 140 -50q55 -47 66 -113l175 -1005q10 -56 10 -81q0 -74 -55 -120q-45 -36 -101 -36q-80 0 -123 58q-28 37 -42 126l-105 643 l-193 -642q-22 -71 -34 -97.5t-30 -44.5q-45 -43 -120 -43q-66 0 -110 36q-39 30 -65 112l-217 679l-102 -643q-14 -88 -41 -126q-41 -58 -122 -58q-55 0 -99 35q-56 45 -56 122z" />
<glyph unicode="N" horiz-adv-x="1394" d="M95 189v1036q0 69 41 115q41 45 117 45q72 0 127 -69l604 -759v619q0 89 21 131q18 34 56 56t80 22t80.5 -22t55.5 -56q21 -42 21 -131v-1017q0 -67 -18 -98q-46 -81 -132 -81q-57 0 -99 38q-12 10 -62 75l-578 734v-638q0 -89 -21 -131q-17 -34 -55.5 -56t-80.5 -22 t-80 22t-56 56q-21 42 -21 131z" />
<glyph unicode="O" horiz-adv-x="1418" d="M34 682q0 356 223 550q193 167 462 167q197 0 364 -106q171 -109 247 -302q54 -139 54 -307q0 -350 -225 -555q-179 -163 -448 -163q-302 0 -491 201q-186 197 -186 515zM369 690q0 -200 94 -324q42 -56 109 -88t140 -32q139 0 226 96q111 124 111 340q0 213 -101 330 q-92 107 -240 107q-65 0 -129 -29t-109 -80q-101 -114 -101 -320z" />
<glyph unicode="P" horiz-adv-x="1131" d="M102 189v949q0 63 4 89q12 65 66 106q44 32 120 32h38h282q228 0 349 -114q67 -63 105 -155.5t38 -191.5q0 -181 -105 -311q-118 -145 -345 -145h-238v-259q0 -89 -21 -131q-17 -34 -55.5 -56t-80.5 -22t-80 22t-56 56q-21 42 -21 131zM416 721h159q100 0 156 56 q52 52 52 127q0 82 -53 137q-51 51 -139 51h-175v-371z" />
<glyph unicode="Q" horiz-adv-x="1494" d="M34 686q0 328 205 529q189 184 475 184q285 0 473 -189q97 -98 149.5 -235t52.5 -295q0 -149 -46 -281q-23 -67 -81 -160l82 -68q46 -38 62 -61q27 -37 27 -79q0 -54 -35 -95q-44 -51 -109 -51q-53 0 -131 68l-107 92q-158 -79 -331 -79q-277 0 -465 171 q-114 105 -169 253q-52 141 -52 296zM369 687q0 -178 75 -295q93 -146 276 -146q45 0 91 18l-54 50q-41 38 -41 95q0 65 55 110q38 31 81 31q52 0 112 -53l46 -39q44 107 44 235q0 202 -104 322q-91 104 -237 104q-141 0 -231 -97q-113 -121 -113 -335z" />
<glyph unicode="R" horiz-adv-x="1164" d="M95 189v949q0 63 4 89q12 65 66 106q44 32 120 32h38h278q209 0 337 -106q142 -118 142 -317q0 -174 -106 -276q-58 -56 -135 -79q-34 -10 -79 -20l266 -294q75 -83 75 -141q0 -71 -55 -118q-43 -37 -101 -37q-56 0 -103 43q-15 13 -49 55l-384 481v-367q0 -89 -21 -131 q-17 -34 -55.5 -56t-80.5 -22t-80 22t-56 56q-21 42 -21 131zM409 774h195q78 0 124 46q45 45 45 107q0 76 -59 125q-48 40 -117 40h-188v-318z" />
<glyph unicode="S" horiz-adv-x="1094" d="M55 197q0 62 42 108q39 41 93 41q40 0 80 -15l108 -41q79 -30 156 -30q81 0 128 42q43 40 43 102q0 64 -53 97q-46 30 -218 81q-140 42 -198 74q-171 94 -171 302q0 213 163 335q141 106 345 106q160 0 281 -65q90 -49 90 -137q0 -64 -47 -109q-37 -35 -92 -35 q-30 0 -51 7l-57 21q-72 25 -140 25q-76 0 -124 -40q-33 -28 -33 -72q0 -50 42 -79q37 -25 86 -38l83 -22q201 -54 305 -141q124 -103 124 -290t-116 -313q-135 -145 -405 -145q-200 0 -347 71q-117 58 -117 160z" />
<glyph unicode="T" horiz-adv-x="993" d="M0 1225q0 38 20 72t50 49q37 19 117 19h619q80 0 117 -19q31 -15 50.5 -49t19.5 -72t-19.5 -72t-50.5 -49q-37 -19 -117 -19h-149v-896q0 -89 -21 -131q-17 -34 -55.5 -56t-80.5 -22t-80 22t-56 56q-21 42 -21 131v896h-156q-79 0 -117 19q-31 15 -50.5 49.5t-19.5 71.5z " />
<glyph unicode="U" horiz-adv-x="1352" d="M82 518v658q0 89 21 131q18 34 56 56t80 22t80.5 -22t55.5 -56q21 -42 21 -131v-613q0 -133 64 -210q36 -42 95 -68t121 -26q66 0 126 28.5t96 77.5q58 77 58 234v577q0 89 21 131q18 34 56 56t80 22t80.5 -22t55.5 -56q21 -42 21 -131v-577q0 -194 -41 -290 q-72 -167 -239 -262q-144 -81 -317 -81q-138 0 -262.5 55t-207.5 154q-121 143 -121 343z" />
<glyph unicode="V" horiz-adv-x="1223" d="M21 1236q0 78 71 124q41 27 89 27q58 0 97 -37q36 -34 66 -116l267 -710l267 710q30 82 66 116q39 37 97 37q57 0 103 -37q57 -46 57 -115q0 -39 -30 -114l-405 -1020q-28 -72 -59 -97q-41 -32 -99 -32q-101 0 -144 107l-413 1042q-30 74 -30 115z" />
<glyph unicode="W" horiz-adv-x="1773" d="M6 1243q0 61 46 105q45 42 106 42q71 0 112 -48q30 -36 49 -120l166 -721l234 743q44 141 166 141q60 0 103 -33q39 -30 64 -108l236 -743l161 717q20 86 50 122q41 50 113 50q61 0 107 -43q47 -43 47 -108q0 -31 -15 -92l-239 -996q-19 -79 -72 -125q-52 -46 -135 -46 q-77 0 -128 38q-54 40 -84 133l-208 646l-192 -630q-35 -114 -101 -155q-53 -33 -125 -33q-71 0 -127 43q-53 40 -67 97l-251 1031q-16 61 -16 93z" />
<glyph unicode="X" horiz-adv-x="1252" d="M36 129q0 59 64 145l343 459l-279 367q-62 81 -62 139q0 51 40 96q45 51 115 51q61 0 109 -48q14 -14 45 -57l211 -288l196 281q37 53 60 74q43 38 100 38q81 0 128 -64q32 -43 32 -88q0 -59 -63 -142l-271 -359l346 -459q64 -85 64 -145q0 -51 -41 -97q-46 -54 -119 -54 q-61 0 -111 50q-14 14 -47 59l-274 379l-268 -377q-37 -52 -61 -73q-44 -37 -97 -37q-81 0 -129 66q-31 43 -31 84z" />
<glyph unicode="Y" horiz-adv-x="1179" d="M34 1236q0 53 42 99q46 50 116 50q63 0 112 -51q14 -15 45 -60l232 -331l244 335q38 52 61 72q42 36 96 36q82 0 128 -66q31 -43 31 -83q0 -61 -63 -144l-340 -449v-455q0 -89 -21 -131q-17 -34 -55.5 -56t-80.5 -22t-80.5 22t-55.5 56q-21 42 -21 131v455l-329 451 q-61 84 -61 141z" />
<glyph unicode="Z" horiz-adv-x="1069" d="M0 157q0 44 28 93q6 10 45 60l582 775h-442q-80 0 -117 19q-31 15 -50.5 49.5t-19.5 71.5q0 38 19.5 72t50.5 49q37 19 117 19h648q73 0 108 -23q76 -50 76 -136q0 -62 -44 -121l-596 -805h478q79 0 116 -19q31 -15 50.5 -49t19.5 -72t-19.5 -72t-50.5 -49 q-37 -19 -116 -19h-684q-79 0 -114 22q-85 53 -85 135z" />
<glyph unicode="[" horiz-adv-x="607" d="M147 -127v1353q0 61 11 93q8 22 29.5 42t43.5 28q34 10 98 10h126q63 0 93 -14q24 -12 40 -38t16 -54q0 -29 -16 -55t-40 -38q-30 -14 -93 -14h-57v-1273h57q63 0 93 -14q24 -12 40 -38t16 -54q0 -29 -16 -55t-40 -38q-30 -14 -93 -14h-126q-192 -9 -182 173z" />
<glyph unicode="\" horiz-adv-x="916" d="M66 1295q0 46 41 74q25 17 55 17q53 0 82 -49q7 -11 22 -48l586 -1413q22 -54 22 -81q0 -46 -41 -74q-25 -17 -55 -17q-35 0 -58 20q-23 19 -47 78l-585 1413q-22 53 -22 80z" />
<glyph unicode="]" horiz-adv-x="607" d="M14 -193q0 28 16 54t40 38q30 14 93 14h57v1273h-57q-63 0 -93 14q-24 12 -40 38t-16 55q0 28 16 54t40 38q30 14 93 14h126q192 9 182 -173v-1353q9 -182 -182 -173h-126q-63 0 -93 14q-24 12 -40 38t-16 55z" />
<glyph unicode="^" d="M12 689l330 684h340l331 -684h-272l-229 477l-229 -477h-271z" />
<glyph unicode="_" d="M0 -96h1024v-233h-1024v233z" />
<glyph unicode="`" d="M172 1393q0 46 35 79q27 24 66 24q21 0 38 -7l309 -126q45 -19 60 -37q22 -27 22 -62q0 -49 -38 -82q-26 -21 -68 -21q-26 0 -44 8l-303 124q-77 32 -77 100z" />
<glyph unicode="a" horiz-adv-x="1148" d="M34 524q0 242 157 398q138 136 315 136q99 0 173 -46q32 -21 82 -72q25 59 56 82q41 30 93 30q58 0 103 -42q46 -44 46 -112v-735q0 -83 -46 -132q-42 -45 -105 -45q-105 0 -150 119q-51 -62 -90 -86q-65 -39 -159 -39q-167 0 -297 115q-178 157 -178 429zM334 519 q0 -114 56 -186q58 -73 153 -73q83 0 142 65q66 73 66 195q0 124 -64 193q-60 65 -148 65q-91 0 -149 -72q-56 -72 -56 -187z" />
<glyph unicode="b" horiz-adv-x="1133" d="M88 146v1156q0 85 20 125q17 33 53.5 54t76.5 21t76.5 -21t53.5 -54q20 -40 20 -125v-332q63 47 106 63q67 26 137 26q186 0 325 -151q142 -154 142 -385q0 -255 -159 -414q-128 -129 -305 -129q-103 0 -177 46q-34 22 -73 73q-46 -113 -142 -113q-59 0 -104 38 q-50 44 -50 122zM386 520q0 -115 60 -187q62 -73 148 -73q93 0 149 78q55 78 55 181q0 105 -55 181q-57 79 -151 79q-84 0 -146 -73q-60 -72 -60 -186z" />
<glyph unicode="c" horiz-adv-x="936" d="M34 512q0 266 157 409q151 138 362 138q143 0 256 -61q38 -21 61 -58.5t23 -78.5q0 -59 -40 -102q-32 -34 -78 -34q-30 0 -110 30q-63 24 -109 24q-88 0 -153 -66q-69 -72 -69 -195q0 -125 69 -195q64 -64 160 -64q58 0 121 29q55 26 87 26q58 0 93 -46q31 -41 31 -90 q0 -68 -58 -111q-53 -41 -134.5 -64.5t-168.5 -23.5q-219 0 -363 156q-137 149 -137 377z" />
<glyph unicode="d" horiz-adv-x="1134" d="M34 525q0 169 93 316q76 121 204 178q89 40 170 40q130 0 245 -96v339q0 85 20 125q17 33 53.5 54t76.5 21t76.5 -21t53.5 -54q20 -40 20 -125v-1144q0 -85 -47 -132q-39 -40 -103 -40q-66 0 -104 40q-22 23 -42 79q-45 -62 -96 -88q-73 -37 -163 -37q-213 0 -344 188 q-113 164 -113 357zM335 535q0 -115 60 -187q62 -73 148 -73q93 0 149 78q55 78 55 181q0 106 -55 181q-57 79 -151 79q-84 0 -146 -73q-60 -72 -60 -186z" />
<glyph unicode="e" horiz-adv-x="1082" d="M34 503q0 263 169 420q146 135 346 135q175 0 311 -108q131 -105 174 -285q15 -64 15 -128q0 -118 -131 -118h-560q33 -90 91.5 -133.5t146.5 -43.5q64 0 129 26q17 7 119 57q31 15 69 15q52 0 88 -47q30 -38 30 -76q0 -85 -121 -154q-145 -83 -329 -83q-275 0 -433 191 q-114 138 -114 332zM347 624h406q-19 73 -44 109q-54 79 -152 79q-84 0 -143 -61q-38 -40 -67 -127z" />
<glyph unicode="f" horiz-adv-x="730" d="M0 901q0 37 19 70.5t49 48.5q36 18 114 18h13v141q0 148 99 235q91 80 229 80q80 0 127 -36q46 -36 46 -101q0 -53 -27 -88q-31 -40 -90 -43q-84 0 -84 -81v-107h53q77 0 114 -18q30 -15 49 -48t19 -70t-19 -70.5t-49 -48.5q-37 -18 -114 -18h-53v-578q0 -86 -20 -126 q-16 -32 -53 -53.5t-77 -21.5t-76.5 21t-53.5 54q-20 40 -20 126v578h-13q-77 0 -114 18q-30 15 -49 48.5t-19 69.5z" />
<glyph unicode="g" horiz-adv-x="1126" d="M34 511q0 266 165 424q130 124 300 124q97 0 169 -48q32 -21 80 -71q33 63 63 85q37 27 82 27q61 0 103 -44q42 -45 42 -121v-794q0 -232 -125 -368q-142 -153 -408 -153q-203 0 -360 86q-92 50 -92 135q0 57 42 93q42 38 96 38q25 0 133 -37q104 -35 185 -35 q151 0 205 99q25 47 34 165q-57 -71 -101 -98q-63 -38 -151 -38q-94 0 -181.5 38.5t-149.5 108.5q-131 146 -131 384zM335 517q0 -120 60 -189q59 -68 144 -68q84 0 139 64q64 75 64 193q0 127 -70 203q-55 59 -138 59q-77 0 -132 -57q-67 -71 -67 -205z" />
<glyph unicode="h" horiz-adv-x="1120" d="M88 187v1115q0 85 20 125q17 33 53.5 54t76.5 21t76.5 -21t53.5 -54q20 -40 20 -125v-331q144 87 276 87q159 0 265 -100q67 -63 88 -145q14 -58 14 -136v-490q0 -86 -20 -126q-17 -32 -53.5 -53.5t-76.5 -21.5t-76.5 21t-53.5 54q-20 40 -20 126v405q0 97 -42 148 q-49 59 -126 59q-81 0 -133 -62q-42 -50 -42 -125v-425q0 -85 -20 -126q-17 -33 -53.5 -54t-76.5 -21t-76.5 21t-53.5 54q-20 40 -20 126z" />
<glyph unicode="i" horiz-adv-x="526" d="M89 1328q0 75 58 128q49 45 120 45q75 0 127 -58q45 -50 45 -117q0 -78 -58 -130q-50 -45 -117 -45q-78 0 -130 58q-45 50 -45 119zM111 187v664q0 85 20 126q17 33 53 54t77 21q40 0 77 -21t53 -54q20 -40 20 -126v-664q0 -86 -20 -126q-16 -32 -53 -53.5t-77 -21.5 t-76.5 21t-53.5 54q-20 40 -20 126z" />
<glyph unicode="j" horiz-adv-x="529" d="M90 1328q0 75 58 128q49 45 120 45q75 0 127 -58q45 -50 45 -117q0 -78 -58 -130q-50 -45 -117 -45q-78 0 -130 58q-45 50 -45 119zM123 -223v1074q0 85 20 126q17 33 53 54t77 21q40 0 76.5 -21t53.5 -54q20 -40 20 -126v-1074q0 -85 -20 -125q-17 -33 -53.5 -54 t-76.5 -21t-76.5 21t-53.5 54q-20 40 -20 125z" />
<glyph unicode="k" horiz-adv-x="1041" d="M88 187v1115q0 85 20 125q17 33 53.5 54t76.5 21t76.5 -21t53.5 -54q20 -40 20 -125v-605l276 283q77 79 138 79t104 -44q43 -43 43 -103q0 -44 -33 -88q-11 -14 -48 -50l-188 -180l263 -327q65 -80 65 -133q0 -71 -57 -117q-41 -32 -95 -32t-101 43q-14 13 -46 54 l-321 411v-306q0 -85 -20 -126q-17 -33 -53.5 -54t-76.5 -21t-76.5 21t-53.5 54q-20 40 -20 126z" />
<glyph unicode="l" horiz-adv-x="477" d="M88 187v1115q0 85 20 125q17 33 53.5 54t76.5 21t76.5 -21t53.5 -54q20 -40 20 -125v-1115q0 -86 -20 -126q-17 -33 -53.5 -54t-76.5 -21t-76.5 21t-53.5 54q-20 40 -20 126z" />
<glyph unicode="m" horiz-adv-x="1703" d="M88 187v692q0 76 38 122q42 51 110 51q58 0 99 -39q19 -17 47 -59q53 47 97 68q75 36 169 36q117 0 205 -50q39 -22 83 -81q75 61 128 88q88 43 189 43q156 0 258 -99q103 -101 103 -248v-524q0 -86 -20 -126q-17 -32 -53.5 -53.5t-76.5 -21.5t-76.5 21t-53.5 54 q-20 40 -20 126v457q0 66 -40 107q-45 48 -114 48q-70 0 -117 -47q-42 -41 -42 -108v-457q0 -85 -20 -126q-17 -33 -53.5 -54t-76.5 -21t-76.5 21t-53.5 54q-20 40 -20 126v427q0 91 -43 138t-113 47q-69 0 -117 -49q-40 -42 -40 -106v-457q0 -85 -20 -126 q-17 -33 -53.5 -54t-76.5 -21t-76.5 21t-53.5 54q-20 40 -20 126z" />
<glyph unicode="n" horiz-adv-x="1116" d="M88 187v688q0 83 42 129q44 48 111 48q56 0 94 -33q25 -21 45 -72q65 60 117 82q71 29 161 29q157 0 260 -91q71 -62 92 -136q17 -58 17 -152v-492q0 -86 -20 -126q-16 -32 -53 -53.5t-77 -21.5t-76.5 21t-53.5 54q-20 40 -20 126v421q0 86 -43 135q-49 56 -126 56 q-80 0 -129 -60q-41 -51 -41 -118v-434q0 -85 -20 -126q-17 -33 -53.5 -54t-76.5 -21t-76.5 21t-53.5 54q-20 40 -20 126z" />
<glyph unicode="o" horiz-adv-x="1078" d="M35 517q0 233 134 377q153 164 376 164q98 0 196 -44.5t167 -119.5q134 -147 134 -375q0 -227 -134 -375q-75 -83 -182 -126q-92 -38 -187 -38q-104 0 -202 43.5t-168 120.5q-134 148 -134 373zM333 519q0 -105 50 -175q60 -84 151 -84q81 0 142 64q70 72 70 194 q0 123 -70 196q-60 64 -144 64q-88 0 -149 -85q-50 -69 -50 -174z" />
<glyph unicode="p" horiz-adv-x="1126" d="M88 -223v1097q0 79 35 127q38 51 110 51q49 0 84 -25q32 -23 61 -89q55 61 104 85q73 36 163 36q162 0 282 -116q164 -160 164 -414q0 -234 -136 -397q-128 -152 -328 -152q-79 0 -144 28q-36 15 -95 60v-291q0 -85 -20 -125q-17 -33 -53.5 -54t-76.5 -21t-76.5 21 t-53.5 54q-20 40 -20 125zM379 519q0 -120 65 -196q53 -63 138 -63q93 0 149 77q59 80 59 182q0 105 -59 183q-57 77 -151 77q-83 0 -136 -63q-65 -76 -65 -197z" />
<glyph unicode="q" horiz-adv-x="1129" d="M34 510q0 224 132 387q61 76 146.5 118.5t176.5 42.5q90 0 166 -39q38 -20 89 -72q37 60 67 80q37 25 81 25q57 0 98 -36q50 -43 50 -115v-1124q0 -85 -20 -125q-17 -33 -53.5 -54t-76.5 -21t-76.5 21t-53.5 54q-20 40 -20 125v294q-118 -92 -242 -92q-79 0 -167.5 39 t-149.5 100q-74 75 -113 189q-34 98 -34 203zM335 519q0 -110 59 -187q56 -73 147 -73q45 0 88 22t69 59q52 73 52 178q0 107 -52 179q-58 81 -160 81q-87 0 -143 -73q-60 -77 -60 -186z" />
<glyph unicode="r" horiz-adv-x="748" d="M88 187v693q0 79 37 121q45 51 113 51q101 0 150 -107q59 59 96 81q56 33 112 33q65 0 111 -49q42 -44 42 -107q0 -55 -36 -85q-29 -25 -117 -53q-107 -34 -160 -76q-30 -24 -39 -51q-9 -21 -9 -73v-378q0 -85 -20 -126q-17 -33 -53.5 -54t-76.5 -21t-76.5 21t-53.5 54 q-20 40 -20 126z" />
<glyph unicode="s" horiz-adv-x="892" d="M55 198q0 56 46 101q35 33 79 33q33 0 64 -13q6 -2 91 -41q72 -32 121 -32q43 0 69 26q18 19 18 43q0 32 -36 54q-20 12 -79 34q-180 68 -241 113q-101 75 -101 212q0 127 87 214q118 117 305 117q145 0 251 -74q85 -59 85 -132q0 -51 -40 -96q-31 -36 -76 -36 q-29 0 -56 11q-11 4 -71 31q-68 30 -115 30q-79 0 -79 -53q0 -32 34 -52q26 -15 123 -53q118 -46 163 -77q140 -93 140 -241q0 -70 -30.5 -136t-82.5 -111q-106 -90 -284 -90q-167 0 -294 81q-91 57 -91 137z" />
<glyph unicode="t" horiz-adv-x="725" d="M0 901q0 61 45 102q37 35 142 35v154q0 85 20 125q17 33 53 54t77 21q40 0 76.5 -21t53.5 -54q20 -40 20 -125v-154h56q77 0 114 -18q30 -15 49 -48t19 -70t-19 -70.5t-49 -48.5q-37 -18 -114 -18h-56v-578q0 -85 -20 -126q-17 -33 -53.5 -54t-76.5 -21t-76.5 21.5 t-53.5 53.5q-20 40 -20 126v578h-5q-109 0 -147 45q-35 41 -35 91z" />
<glyph unicode="u" horiz-adv-x="1111" d="M88 405v446q0 85 20 126q17 33 53 54t77 21q40 0 76.5 -21t53.5 -54q20 -40 20 -126v-409q0 -63 20 -95q51 -82 147 -82q70 0 119 48q48 46 48 129v409q0 86 20 126q17 33 53.5 54t76.5 21t76.5 -21t53.5 -54q20 -40 20 -126v-446q0 -153 -73 -248q-62 -80 -160 -126 q-110 -52 -234 -52q-174 0 -305 93q-102 72 -138 172q-24 68 -24 161z" />
<glyph unicode="v" horiz-adv-x="1005" d="M29 907q0 79 71 123q37 24 83 24q62 0 101 -38q33 -33 61 -116l152 -452l152 450q29 85 62 118q40 38 103 38q54 0 97 -34q58 -46 58 -115q0 -40 -29 -113l-257 -641q-33 -81 -62 -115q-44 -50 -118 -50q-121 0 -179 144l-266 665q-29 73 -29 112z" />
<glyph unicode="w" horiz-adv-x="1526" d="M19 911q0 81 74 124q35 20 76 20q64 0 103 -41q31 -33 56 -115l134 -449l146 465q24 75 59 104q39 33 100 33q106 0 149 -137l148 -463l132 445q25 84 57 117q39 41 104 41q50 0 90 -29q61 -45 61 -118q0 -36 -23 -104l-212 -605q-32 -93 -57 -128q-58 -85 -150 -85 q-62 0 -106 39q-39 34 -69 121l-128 376l-105 -323q-34 -106 -70 -152q-49 -61 -129 -61q-128 0 -184 160l-232 661q-24 69 -24 104z" />
<glyph unicode="x" horiz-adv-x="1072" d="M41 139q0 61 77 143l244 262l-196 213q-77 82 -77 142q0 71 54 117q44 38 102 38q55 0 103 -43q15 -13 48 -56l146 -184l148 181q40 50 65 68q40 29 86 29q59 0 104 -40q52 -47 52 -116q0 -43 -31 -89q-11 -17 -49 -56l-195 -204l240 -267q74 -83 74 -140q0 -70 -53 -116 q-44 -38 -101 -38q-52 0 -100 41q-16 15 -48 54l-192 236l-195 -235q-40 -49 -65 -67q-40 -29 -85 -29q-59 0 -103 39q-53 47 -53 117z" />
<glyph unicode="y" horiz-adv-x="1018" d="M21 909q0 73 65 118q38 26 86 26q56 0 93 -32q33 -30 65 -110l176 -445l176 442q32 82 66 112q38 33 95 33t100 -36q53 -45 53 -110q0 -41 -31 -114l-458 -1092q-24 -57 -41 -81q-43 -58 -117 -58q-56 0 -99 37q-51 44 -51 106q0 41 31 113l118 277l-297 702 q-30 72 -30 112z" />
<glyph unicode="z" horiz-adv-x="919" d="M1 103q0 42 35 90l419 573h-269q-78 0 -114 18q-30 15 -49 48.5t-19 70.5q0 36 19 69.5t49 48.5q36 18 114 18h580q49 0 83 -29q40 -33 40 -80t-42 -104l-405 -553h295q77 0 114 -18q30 -15 49 -48.5t19 -69.5q0 -37 -19 -70.5t-49 -48.5q-37 -18 -114 -18h-581 q-78 0 -116.5 25.5t-38.5 77.5z" />
<glyph unicode="{" horiz-adv-x="667" d="M82 543q0 67 28 97q5 5 44 30q48 33 49 145v303q0 163 84 227q53 40 132 50q34 4 99 4q75 0 112 -26t37 -79q0 -97 -124 -106q-46 -4 -63 -19q-23 -10 -23 -128v-244q0 -84 -19 -133q-14 -40 -40 -67q-17 -19 -61 -47q59 -38 80 -71q39 -59 40 -176v-244q-1 -58 8 -101 q8 -40 78 -46q124 -9 124 -106q0 -46 -37 -80q-27 -25 -114 -25q-106 0 -158 17q-105 35 -137 131q-18 54 -18 133v304q0 75 -17 106q-10 22 -27 34q-18 11 -37 25q-19 12 -25 22q-15 22 -15 70z" />
<glyph unicode="|" d="M382 -341v1706h259v-1706h-259z" />
<glyph unicode="}" horiz-adv-x="667" d="M0 -194q0 97 124 107q46 4 63 18q23 10 23 128v244q0 84 19 133q14 40 40 67q17 19 61 47q-59 38 -80 72q-39 58 -40 175v244q1 58 -8 101q-8 40 -78 46q-124 9 -124 106q0 46 37 80q27 25 114 25q106 0 158 -17q105 -35 137 -131q18 -54 18 -133v-303q0 -75 17 -107 q10 -21 27 -34q18 -12 37 -25q19 -12 25 -21q15 -23 15 -71q0 -67 -28 -97q-5 -5 -43 -30q-49 -33 -50 -144v-304q0 -163 -84 -227q-53 -40 -132 -50q-34 -4 -99 -4q-75 0 -112 26t-37 79z" />
<glyph unicode="~" horiz-adv-x="1365" d="M185 1243q10 23 16 35q36 83 58 115q88 133 234 133q69 0 214 -53q97 -36 119 -41q33 -8 60 -8q61 0 101 39q19 19 47 66l147 -85q-41 -86 -67 -125q-99 -146 -256 -146q-55 0 -209 55q-133 48 -170 48q-53 0 -92 -35q-22 -20 -59 -91z" />
<glyph unicode="&#xa1;" horiz-adv-x="525" d="M95 1233q0 72 55 123q47 43 115 43q71 0 121 -55q43 -48 43 -112q0 -75 -55 -124q-48 -43 -112 -43q-74 0 -124 55q-43 48 -43 113zM112 166v594q0 85 20 125q17 33 53.5 54t76.5 21t76.5 -21t53.5 -54q20 -40 20 -125v-594q0 -85 -20 -125q-17 -33 -53.5 -54t-76.5 -21 t-76.5 21t-53.5 54q-20 40 -20 125z" />
<glyph unicode="&#xa2;" horiz-adv-x="1010" d="M68 674q0 165 74 298q85 152 233 212q40 17 107 32v62q0 58 14 85q26 51 89 51t88 -51q14 -27 14 -85v-62q256 -52 256 -197q0 -55 -37 -96q-38 -41 -87 -41q-24 0 -116 33q-47 18 -109 18q-92 0 -150 -62q-70 -73 -70 -196q0 -119 68 -188q66 -67 161 -67q53 0 172 46 q20 8 45 8q48 0 84 -44q35 -42 35 -92q0 -65 -44 -106q-45 -43 -122 -66q-38 -11 -86 -23v-72q0 -58 -14 -86q-25 -51 -88 -51t-89 51q-14 28 -14 86v72q-151 30 -252 126q-162 153 -162 405z" />
<glyph unicode="&#xa3;" horiz-adv-x="1256" d="M26 691q0 39 20.5 74.5t52.5 51.5q39 20 122 20h29q-37 97 -37 176q0 82 39.5 156t110.5 124q150 106 364 106q203 0 350 -99q68 -46 106.5 -108.5t38.5 -127.5q0 -68 -50 -111q-51 -44 -114 -44q-49 0 -90 35q-19 16 -51 66q-41 63 -87 85q-49 24 -104 24 q-85 0 -131 -53q-38 -43 -38 -100q0 -43 44 -129h116q83 0 122 -20q32 -16 52.5 -51.5t20.5 -74.5t-20.5 -74.5t-52.5 -51.5q-39 -20 -122 -20h-79v-18q0 -86 -79 -238h477q82 0 121 -19q31 -16 51.5 -51t20.5 -74t-20.5 -74t-51.5 -51q-39 -20 -121 -20h-706q-89 0 -139 52 q-37 38 -37 98q0 44 15 75q8 15 33 46q68 85 88 150q11 35 23 124h-92q-83 0 -122 20q-32 16 -52.5 51.5t-20.5 74.5z" />
<glyph unicode="&#xa4;" horiz-adv-x="1256" d="M143 683q0 134 73 256l-10 10q-61 61 -61 108q0 48 34 82t83 34q45 0 106 -61l11 -11q119 67 249 67q134 0 249 -67l11 11q61 61 107 61q48 0 82 -34t34 -82q0 -47 -61 -108l-9 -9q73 -121 73 -257q0 -131 -68 -249q65 -63 65 -111t-34 -82t-82 -34q-46 0 -89 43 q-3 2 -9 8l-12 12q-123 -73 -256 -73q-136 0 -257 74q-62 -65 -111 -65q-48 0 -82 34t-34 83q0 48 66 112q-68 117 -68 248zM375 683q0 -105 74 -179q75 -75 180 -75q104 0 179 75q74 74 74 178q0 108 -74 180q-76 74 -182 74q-103 0 -177 -74t-74 -179z" />
<glyph unicode="&#xa5;" horiz-adv-x="1092" d="M58 1248q0 68 65 113q38 26 86 26q55 0 92 -32q34 -29 54 -79l12 -31l168 -361h15l168 358q6 15 13 32q44 113 149 113q56 0 99 -36q53 -45 53 -105q0 -24 -9.5 -61.5t-20.5 -57.5l-136 -243h33q116 0 116 -87q0 -88 -116 -88h-131l-62 -112h193q116 0 116 -87 q0 -88 -116 -88h-207v-235q0 -86 -20 -126q-17 -33 -53.5 -54t-76.5 -21t-76.5 21t-53.5 54q-20 40 -20 126v235h-201q-116 0 -116 88q0 87 116 87h193l-62 112h-131q-116 0 -116 88q0 87 116 87h34l-137 246q-30 55 -30 118z" />
<glyph unicode="&#xa6;" d="M382 314h259v-655h-259v655zM382 657v708h259v-708h-259z" />
<glyph unicode="&#xa7;" horiz-adv-x="1092" d="M63 -106q0 57 43 96q35 31 79 31q38 0 78 -17l96 -40q79 -33 155 -33q61 0 100 30q45 35 45 95q0 57 -45 91q-35 27 -81 45q-42 17 -121 47q-192 74 -257 140q-72 74 -72 202q0 160 115 246q-66 77 -66 193q0 195 162 298q119 75 278 75q168 0 289 -70q75 -44 75 -115 q0 -60 -48 -98q-32 -26 -76 -26q-31 0 -55 9l-50 20q-73 29 -134 29q-64 0 -104 -28q-34 -24 -34 -67q0 -46 36 -76q33 -27 78 -42l78 -27q182 -64 280 -149q48 -42 76 -107.5t28 -136.5q0 -156 -107 -251q28 -47 38 -72q20 -52 20 -117q0 -174 -120 -283 q-116 -106 -327 -106q-203 0 -353 78q-99 52 -99 136zM348 625q0 -60 37 -96q40 -40 165 -88q102 -39 161 -65q35 53 35 103q0 74 -51 116q-48 41 -136 76q-18 7 -95 33q-24 8 -72 25q-44 -41 -44 -104z" />
<glyph unicode="&#xa8;" d="M140 1323q0 65 50 110q42 39 103 39q63 0 108 -50q39 -42 39 -100q0 -67 -50 -112q-42 -38 -100 -38q-67 0 -112 50q-38 42 -38 101zM584 1323q0 65 50 110q42 39 103 39q63 0 108 -50q39 -42 39 -100q0 -67 -50 -112q-42 -38 -100 -38q-67 0 -112 50q-38 42 -38 101z " />
<glyph unicode="&#xa9;" horiz-adv-x="1638" d="M109 682q0 202 105 376q103 169 286 262q151 76 331 76q134 0 262 -54.5t227 -153.5q100 -100 154.5 -231.5t54.5 -274.5q0 -141 -54 -272.5t-154 -231.5q-99 -100 -229.5 -154.5t-270.5 -54.5t-270.5 54t-229.5 153q-101 100 -156.5 232.5t-55.5 273.5zM262 683 q0 -239 166 -408q164 -167 392 -167q230 0 393 169q163 168 163 404q0 115 -43 223t-121 186q-165 167 -397 167q-106 0 -208 -43.5t-180 -122.5q-165 -167 -165 -408zM461 687q0 196 123 307q116 104 288 104q63 0 121 -16t87 -42q35 -30 35 -73q0 -32 -20 -56 q-22 -28 -62 -28q-23 0 -70 18q-49 19 -95 19q-80 0 -128 -46q-68 -63 -68 -188q0 -122 66 -181q52 -46 132 -46q45 0 71 11l55 23q23 10 45 10q35 0 59 -28q22 -25 22 -59q0 -56 -61 -91q-79 -44 -191 -44q-173 0 -283 100q-126 116 -126 306z" />
<glyph unicode="&#xaa;" horiz-adv-x="791" d="M49 862q0 146 101 240q89 82 203 82q89 0 159 -65q31 61 96 61q40 0 69 -26q32 -28 32 -71v-434q0 -52 -31 -83q-29 -28 -71 -28q-68 0 -97 65q-28 -32 -51 -45q-43 -24 -104 -24q-107 0 -191 69q-115 95 -115 259zM252 859q0 -66 34 -106t91 -40q49 0 84 36 q40 42 40 110q0 71 -38 110q-36 36 -89 36q-54 0 -88 -40t-34 -106z" />
<glyph unicode="&#xab;" horiz-adv-x="1174" d="M113 555q0 58 51 128l173 239q45 61 111 61q53 0 89 -41q33 -38 33 -90q0 -53 -41 -96l-196 -201l196 -201q41 -43 41 -96q0 -60 -43 -100q-34 -31 -79 -31q-66 0 -111 61l-173 239q-51 70 -51 128zM605 555q0 58 51 128l173 239q44 61 111 61q53 0 89 -41q33 -38 33 -90 q0 -53 -42 -96l-196 -201l196 -201q42 -43 42 -96q0 -60 -43 -100q-34 -31 -79 -31q-67 0 -111 61l-173 239q-51 70 -51 128z" />
<glyph unicode="&#xac;" d="M68 304v242h887v-546h-259v304h-628z" />
<glyph unicode="&#xad;" horiz-adv-x="505" d="M0 566q0 34 18 65.5t46 45.5q34 17 107 17h163q73 0 107 -17q28 -14 46 -45.5t18 -65.5q0 -35 -18 -66.5t-46 -45.5q-34 -17 -107 -17h-163q-72 0 -107 17q-28 14 -46 45.5t-18 66.5z" />
<glyph unicode="&#xae;" horiz-adv-x="1638" d="M109 682q0 202 105 376q103 169 286 262q151 76 331 76q134 0 262 -54.5t227 -153.5q100 -100 154.5 -231.5t54.5 -274.5q0 -141 -54 -272.5t-154 -231.5q-99 -100 -229.5 -154.5t-270.5 -54.5t-270.5 54t-229.5 153q-101 100 -156.5 232.5t-55.5 273.5zM262 683 q0 -239 166 -408q164 -167 392 -167q230 0 393 169q163 168 163 404q0 115 -43 223t-121 186q-165 167 -397 167q-106 0 -208 -43.5t-180 -122.5q-165 -167 -165 -408zM530 414v530q-8 142 141 135h164q125 0 204 -61q86 -67 86 -183q0 -174 -183 -214l149 -156 q46 -48 46 -84q0 -42 -35 -71q-27 -22 -64 -22q-46 0 -94 57l-215 255v-186q0 -125 -99 -125q-61 0 -87 48q-13 25 -13 77zM729 748h108q44 0 69 24q24 23 24 55q0 39 -32 64q-27 21 -65 21h-104v-164z" />
<glyph unicode="&#xaf;" d="M0 1473v233h1024v-233h-1024z" />
<glyph unicode="&#xb0;" horiz-adv-x="846" d="M109 1056q0 130 91 218q95 91 227 91q126 0 218 -90t92 -218t-91 -218q-92 -92 -223 -92t-223 92q-91 90 -91 217zM264 1057q0 -66 46 -111q47 -47 113 -47q65 0 113 47q46 45 46 110q0 66 -47 111q-48 46 -114 46q-64 0 -111 -46q-46 -46 -46 -110z" />
<glyph unicode="&#xb1;" horiz-adv-x="1092" d="M68 156q0 58 48 82q24 13 79 13h702q54 0 79 -13q48 -24 48 -82t-47 -82q-26 -13 -89 -13h-693q-54 0 -79 13q-48 24 -48 82zM68 785q0 58 48 82q24 13 79 13h256v270q0 54 13 79q24 47 82 47t82 -47q13 -25 13 -79v-270h256q54 0 80 -13q47 -24 47 -82t-47 -82 q-25 -13 -80 -13h-256v-229q0 -54 -13 -79q-24 -48 -82 -48t-82 48q-13 25 -13 79v229h-256q-54 0 -79 13q-48 24 -48 82z" />
<glyph unicode="&#xb2;" horiz-adv-x="797" d="M94 630q0 40 55 95q32 32 128 135.5t115 127.5q77 93 77 144q0 31 -24 52q-21 19 -51 19q-66 0 -89 -76q-20 -67 -36 -83q-25 -24 -64 -24q-49 0 -77 33q-21 25 -21 64q0 120 105 203q83 65 192 65q118 0 203 -74q78 -69 78 -176q0 -76 -43 -152q-55 -97 -231 -260h169 q123 0 123 -88t-123 -88h-370q-63 0 -91 27q-25 24 -25 56z" />
<glyph unicode="&#xb3;" horiz-adv-x="797" d="M86 757q0 36 32 64q29 24 68 24q40 0 66 -26q7 -7 33 -51q36 -58 103 -58q46 0 77 29q26 25 26 67q0 75 -100 84q-107 10 -107 89q0 38 24 60q15 13 76 29q76 19 76 74q0 32 -28 48q-20 12 -44 12q-48 0 -96 -50q-47 -50 -89 -50t-69 30q-22 25 -22 57q0 71 69 124 q93 72 216 72q104 0 181 -57q81 -62 81 -167q0 -76 -48 -128q-11 -12 -41 -34q137 -74 137 -205q0 -123 -99 -200q-86 -68 -212 -68q-105 0 -184 47q-57 34 -94 91q-32 49 -32 93z" />
<glyph unicode="&#xb4;" d="M322 1264q0 41 28 69q13 13 54 30l309 126q17 7 37 7q46 0 74 -32q28 -31 28 -71q0 -68 -77 -100l-303 -124q-19 -8 -45 -8q-48 0 -76 31q-29 31 -29 72z" />
<glyph unicode="&#xb5;" horiz-adv-x="1092" d="M79 -223v1074q0 85 20 126q17 33 53 54t77 21q40 0 76.5 -21t53.5 -54q20 -40 20 -126v-409q0 -63 20 -95q51 -82 147 -82q70 0 119 48q48 46 48 129v409q0 86 20 126q17 33 53.5 54t76.5 21t76.5 -21t53.5 -54q20 -40 20 -126v-446q0 -153 -73 -248q-62 -80 -160 -126 q-110 -52 -236 -52q-76 0 -165 26v-228q0 -85 -20 -125q-17 -33 -53.5 -54t-76.5 -21t-76.5 21t-53.5 54q-20 40 -20 125z" />
<glyph unicode="&#xb6;" horiz-adv-x="1092" d="M2 950q0 187 105 313q85 102 254 102h407h28q83 0 120 -74q18 -35 18 -131v-1258q0 -77 -15 -114q-13 -29 -41 -48t-59 -19q-30 0 -58 19t-41 48q-15 37 -15 114v1217h-109v-1217q0 -77 -15 -114q-12 -29 -40.5 -48t-59.5 -19q-30 0 -58.5 19t-40.5 48q-15 37 -15 114 v638h-37q-167 0 -251 130q-77 120 -77 280z" />
<glyph unicode="&#xb7;" horiz-adv-x="437" d="M51 613q0 72 56 123q47 43 115 43q71 0 121 -55q43 -48 43 -112q0 -75 -55 -125q-48 -43 -112 -43q-75 0 -125 55q-43 48 -43 114z" />
<glyph unicode="&#xb8;" d="M325 -271q0 25 18 62l103 209h211l-152 -319q-21 -43 -78 -43q-53 0 -84 39q-18 24 -18 52z" />
<glyph unicode="&#xb9;" horiz-adv-x="797" d="M168 1277q0 54 47 76q25 12 75 12h111q140 7 133 -125v-577q0 -54 -14 -80q-27 -49 -91 -49t-91 49q-14 26 -14 80v526h-34q-122 0 -122 88z" />
<glyph unicode="&#xba;" horiz-adv-x="747" d="M50 859q0 140 87 227q98 99 241 99q63 0 126 -26.5t107 -72.5q87 -89 87 -227q0 -136 -87 -226q-95 -99 -237 -99t-237 99q-87 90 -87 226zM251 859q0 -59 30 -99q36 -47 90 -47q48 0 85 36q42 41 42 110q0 70 -42 111q-37 36 -86 36q-53 0 -89 -47q-30 -39 -30 -100z " />
<glyph unicode="&#xbb;" horiz-adv-x="1174" d="M113 258q0 53 42 96l195 201l-195 201q-42 43 -42 96q0 60 43 100q34 31 79 31q67 0 111 -61l173 -239q51 -70 51 -128t-51 -128l-173 -239q-44 -61 -111 -61q-53 0 -89 41q-33 38 -33 90zM605 259q0 53 41 95l196 201l-196 201q-41 43 -41 95q0 61 43 101q34 31 79 31 q66 0 111 -61l173 -239q51 -71 51 -128t-51 -128l-173 -239q-45 -61 -111 -61q-53 0 -89 41q-33 38 -33 91z" />
<glyph unicode="&#xbc;" horiz-adv-x="1846" d="M168 1277q0 54 47 76q25 12 75 12h111q140 7 133 -125v-577q0 -54 -14 -80q-27 -49 -91 -49t-91 49q-14 26 -14 80v526h-34q-122 0 -122 88zM578 55q0 25 19 72l471 1181q20 51 42 71q24 21 61 21q35 0 62 -23q35 -28 35 -70q0 -25 -19 -71l-472 -1182q-20 -51 -42 -70 q-24 -21 -60 -21q-35 0 -63 23q-34 28 -34 69zM1115 256q0 24 11 43l254 441q52 91 146 91q65 0 102 -42q38 -41 38 -100v-341h14q40 0 63 -18q34 -25 34 -67q0 -39 -34 -67q-26 -21 -75 -23l-2 -64q0 -51 -13 -75q-26 -46 -86 -46q-98 0 -98 121v64h-243q-51 0 -80 21 q-31 22 -31 62zM1345 348h124v221z" />
<glyph unicode="&#xbd;" horiz-adv-x="1846" d="M168 1277q0 54 47 76q25 12 75 12h111q140 7 133 -125v-577q0 -54 -14 -80q-27 -49 -91 -49t-91 49q-14 26 -14 80v526h-34q-122 0 -122 88zM578 55q0 25 19 72l471 1181q20 51 42 71q24 21 61 21q35 0 62 -23q35 -28 35 -70q0 -25 -19 -71l-472 -1182q-20 -51 -42 -70 q-24 -21 -60 -21q-35 0 -63 23q-34 28 -34 69zM1143 83q0 41 55 95q32 32 127.5 135.5t115.5 127.5q77 93 77 145q0 31 -24 52q-21 19 -51 19q-66 0 -89 -76q-20 -68 -36 -84q-25 -24 -64 -24q-49 0 -77 33q-21 25 -21 64q0 120 105 203q83 66 192 66q118 0 203 -74 q78 -69 78 -176q0 -77 -43 -153q-55 -97 -231 -260h169q123 0 123 -88t-123 -88h-370q-63 0 -91 27q-25 24 -25 56z" />
<glyph unicode="&#xbe;" horiz-adv-x="1846" d="M86 757q0 36 32 64q29 24 68 24q40 0 66 -26q7 -7 33 -51q36 -58 103 -58q46 0 77 29q26 25 26 67q0 75 -100 84q-107 10 -107 89q0 38 24 60q15 13 76 29q76 19 76 74q0 32 -28 48q-20 12 -44 12q-48 0 -96 -50q-47 -50 -89 -50t-69 30q-22 25 -22 57q0 71 69 124 q93 72 216 72q104 0 181 -57q81 -62 81 -167q0 -76 -48 -128q-11 -12 -41 -34q137 -74 137 -205q0 -123 -99 -200q-86 -68 -212 -68q-105 0 -184 47q-57 34 -94 91q-32 49 -32 93zM578 55q0 26 19 72l471 1181q20 51 42 71q24 21 61 21q35 0 62 -23q35 -28 35 -70 q0 -25 -18 -71l-472 -1182q-21 -51 -43 -70q-24 -21 -60 -21q-35 0 -63 23q-34 28 -34 69zM1116 256q0 24 11 43l254 441q52 91 146 91q64 0 102 -42t38 -100v-341h14q40 0 63 -18q34 -25 34 -67q0 -39 -34 -67q-26 -21 -75 -23l-2 -64q0 -51 -13 -75q-26 -46 -86 -46 q-98 0 -98 121v64h-243q-51 0 -80 21q-31 22 -31 62zM1346 348h124v221z" />
<glyph unicode="&#xbf;" horiz-adv-x="988" d="M34 400q0 185 136 302q82 70 204 97q-1 13 -1 19q0 58 20 98q17 33 53.5 54t76.5 21q41 0 77.5 -21t53.5 -54q20 -40 20 -125v-97q0 -60 -25 -88q-22 -24 -51 -31q-16 -5 -53 -11q-172 -29 -172 -158q0 -70 55 -106q43 -28 94 -28q46 0 81.5 21.5t73.5 72.5q35 48 55 62 q35 24 79 24q62 0 104 -44q39 -39 39 -97q0 -123 -116 -226q-134 -119 -326 -119q-97 0 -188 33t-156 91q-134 120 -134 310zM359 1233q0 72 55 123q47 43 115 43q71 0 121 -55q43 -48 43 -112q0 -74 -55 -124q-48 -43 -112 -43q-74 0 -124 55q-43 48 -43 113z" />
<glyph unicode="&#xc0;" horiz-adv-x="1243" d="M7 127q0 38 26 109l357 981q63 175 232 175q168 0 231 -175l357 -981q26 -71 26 -109q0 -84 -77 -129q-39 -22 -83 -22q-64 0 -103 45q-33 37 -56 121l-33 119h-525l-33 -119q-23 -84 -56 -121q-40 -45 -103 -45q-53 0 -97 32q-63 45 -63 119zM458 541h331l-165 519z M288 1714q0 51 40 80q28 21 66 21q19 0 33 -5l309 -113q82 -30 82 -99q0 -49 -38 -82q-26 -21 -66 -21q-24 0 -46 8l-303 111q-77 29 -77 100z" />
<glyph unicode="&#xc1;" horiz-adv-x="1243" d="M7 127q0 38 26 109l357 981q63 175 232 175q168 0 231 -175l357 -981q26 -71 26 -109q0 -84 -77 -129q-39 -22 -83 -22q-64 0 -103 45q-33 37 -56 121l-33 119h-525l-33 -119q-23 -84 -56 -121q-40 -45 -103 -45q-53 0 -97 32q-63 45 -63 119zM458 541h331l-165 519z M432 1598q0 70 82 99l309 113q13 5 32 5q46 0 76 -28q31 -30 31 -73q0 -71 -77 -100l-303 -111q-22 -8 -46 -8q-47 0 -75 31q-29 31 -29 72z" />
<glyph unicode="&#xc2;" horiz-adv-x="1243" d="M7 127q0 38 26 109l357 981q63 175 232 175q168 0 231 -175l357 -981q26 -71 26 -109q0 -84 -77 -129q-39 -22 -83 -22q-64 0 -103 45q-33 37 -56 121l-33 119h-525l-33 -119q-23 -84 -56 -121q-40 -45 -103 -45q-53 0 -97 32q-63 45 -63 119zM458 541h331l-165 519z M261 1600q0 64 67 94l253 113q21 9 42 9q20 0 36 -7l251 -114q73 -33 73 -97q0 -42 -27 -72q-30 -32 -75 -32q-21 0 -39 8l-220 105l-219 -103q-17 -9 -39 -9q-49 0 -79 39q-24 30 -24 66z" />
<glyph unicode="&#xc3;" horiz-adv-x="1243" d="M7 127q0 38 26 109l357 981q63 175 232 175q168 0 231 -175l357 -981q26 -71 26 -109q0 -84 -77 -129q-39 -22 -83 -22q-64 0 -103 45q-33 37 -56 121l-33 119h-525l-33 -119q-23 -84 -56 -121q-40 -45 -103 -45q-53 0 -97 32q-63 45 -63 119zM458 541h331l-165 519z M258 1608q0 85 68 140q63 50 147 50q49 0 111 -23q16 -6 108 -52q36 -19 70 -19q25 0 38 15q6 7 19 30q26 50 77 50q42 0 67 -31q23 -27 23 -63q0 -88 -80 -146q-57 -42 -135 -42q-66 0 -155 44q-101 50 -134 50q-25 0 -43 -20q-4 -5 -28 -44q-20 -32 -63 -32t-70 29 q-20 22 -20 64z" />
<glyph unicode="&#xc4;" horiz-adv-x="1243" d="M7 127q0 38 26 109l357 981q63 175 232 175q168 0 231 -175l357 -981q26 -71 26 -109q0 -84 -77 -129q-39 -22 -83 -22q-64 0 -103 45q-33 37 -56 121l-33 119h-525l-33 -119q-23 -84 -56 -121q-40 -45 -103 -45q-53 0 -97 32q-63 45 -63 119zM458 541h331l-165 519z M250 1658q0 65 50 110q42 39 103 39q63 0 108 -50q39 -42 39 -100q0 -67 -50 -112q-42 -38 -100 -38q-67 0 -112 50q-38 42 -38 101zM694 1658q0 65 50 110q42 39 103 39q63 0 108 -50q39 -42 39 -100q0 -67 -50 -112q-42 -38 -100 -38q-67 0 -112 50q-38 42 -38 101z" />
<glyph unicode="&#xc5;" horiz-adv-x="1243" d="M7 127q0 38 26 109l357 981q63 175 232 175q168 0 231 -175l357 -981q26 -71 26 -109q0 -84 -77 -129q-39 -22 -83 -22q-64 0 -103 45q-33 37 -56 121l-33 119h-525l-33 -119q-23 -84 -56 -121q-40 -45 -103 -45q-53 0 -97 32q-63 45 -63 119zM458 541h331l-165 519z M420 1678q0 87 67 147q57 52 138 52q86 0 146 -66q52 -57 52 -135q0 -90 -67 -149q-57 -52 -134 -52q-90 0 -150 66q-52 58 -52 137zM550 1676q0 -31 24 -53q20 -18 48 -18q31 0 53 24q18 20 18 48q0 30 -24 52q-20 18 -48 18q-31 0 -53 -24q-18 -20 -18 -47z" />
<glyph unicode="&#xc6;" horiz-adv-x="1616" d="M48 120q0 40 32 113l446 1025q28 64 66 87q29 20 105 20h678q79 0 116 -19q31 -15 50.5 -49t19.5 -72t-19.5 -72t-50.5 -49q-37 -19 -116 -19h-304v-254h271q79 0 116 -19q31 -15 50.5 -49t19.5 -72t-19.5 -72t-50.5 -49q-37 -19 -116 -19h-271v-271h304q79 0 116 -19 q31 -15 50.5 -49t19.5 -72t-19.5 -72t-50.5 -49q-37 -19 -116 -19h-381q-106 -1 -152 26q-42 26 -61.5 61.5t-22.5 90.5q-1 20 -1 54h-356l-48 -117q-21 -52 -41 -79q-43 -57 -116 -57q-56 0 -98 37q-50 44 -50 104zM522 512h235v556z" />
<glyph unicode="&#xc7;" horiz-adv-x="1171" d="M33 680q0 338 206 537q187 182 473 182q140 0 250 -42q157 -59 157 -178q0 -53 -30 -93q-35 -45 -97 -45q-37 0 -115 31q-85 34 -164 34q-141 0 -227 -85q-118 -117 -118 -344q0 -223 116 -332q91 -85 230 -85q80 0 126 21l93 41q37 16 71 16q54 0 92 -47q34 -40 34 -95 q0 -121 -171 -188q-85 -33 -190 -40l-136 -286q-21 -44 -78 -44q-53 0 -84 39q-18 23 -18 52q0 25 18 62l92 189q-133 24 -253 108q-145 101 -217 275q-60 144 -60 317z" />
<glyph unicode="&#xc8;" horiz-adv-x="943" d="M96 228v909q0 64 4 90q11 64 66 106q44 32 120 32h38h379q79 0 116 -19q31 -15 50.5 -49t19.5 -72t-19.5 -72t-50.5 -49q-37 -19 -116 -19h-293v-260h261q80 0 117 -19q31 -15 50.5 -49t19.5 -72t-19.5 -72t-50.5 -49q-37 -19 -117 -19h-261v-265h293q79 0 116 -19 q31 -15 50.5 -49t19.5 -72t-19.5 -72t-50.5 -49q-37 -19 -116 -19h-379h-11q-73 0 -112 13q-28 10 -55 37t-37 55q-13 39 -13 112v11zM158 1714q0 51 40 80q28 21 66 21q19 0 33 -5l309 -113q82 -30 82 -99q0 -49 -38 -82q-26 -21 -66 -21q-24 0 -46 8l-303 111 q-77 29 -77 100z" />
<glyph unicode="&#xc9;" horiz-adv-x="943" d="M96 228v909q0 64 4 90q11 64 66 106q44 32 120 32h38h379q79 0 116 -19q31 -15 50.5 -49t19.5 -72t-19.5 -72t-50.5 -49q-37 -19 -116 -19h-293v-260h261q80 0 117 -19q31 -15 50.5 -49t19.5 -72t-19.5 -72t-50.5 -49q-37 -19 -117 -19h-261v-265h293q79 0 116 -19 q31 -15 50.5 -49t19.5 -72t-19.5 -72t-50.5 -49q-37 -19 -116 -19h-379h-11q-73 0 -112 13q-28 10 -55 37t-37 55q-13 39 -13 112v11zM282 1598q0 70 82 99l309 113q13 5 32 5q46 0 76 -28q31 -30 31 -73q0 -71 -77 -100l-303 -111q-22 -8 -46 -8q-47 0 -75 31 q-29 31 -29 72z" />
<glyph unicode="&#xca;" horiz-adv-x="943" d="M96 228v909q0 64 4 90q11 64 66 106q44 32 120 32h38h379q79 0 116 -19q31 -15 50.5 -49t19.5 -72t-19.5 -72t-50.5 -49q-37 -19 -116 -19h-293v-260h261q80 0 117 -19q31 -15 50.5 -49t19.5 -72t-19.5 -72t-50.5 -49q-37 -19 -117 -19h-261v-265h293q79 0 116 -19 q31 -15 50.5 -49t19.5 -72t-19.5 -72t-50.5 -49q-37 -19 -116 -19h-379h-11q-73 0 -112 13q-28 10 -55 37t-37 55q-13 39 -13 112v11zM124 1600q0 64 67 94l253 113q21 9 42 9q20 0 36 -7l251 -114q73 -33 73 -97q0 -42 -27 -72q-30 -32 -75 -32q-21 0 -39 8l-220 105 l-219 -103q-17 -9 -39 -9q-49 0 -79 39q-24 30 -24 66z" />
<glyph unicode="&#xcb;" horiz-adv-x="943" d="M96 228v909q0 64 4 90q11 64 66 106q44 32 120 32h38h379q79 0 116 -19q31 -15 50.5 -49t19.5 -72t-19.5 -72t-50.5 -49q-37 -19 -116 -19h-293v-260h261q80 0 117 -19q31 -15 50.5 -49t19.5 -72t-19.5 -72t-50.5 -49q-37 -19 -117 -19h-261v-265h293q79 0 116 -19 q31 -15 50.5 -49t19.5 -72t-19.5 -72t-50.5 -49q-37 -19 -116 -19h-379h-11q-73 0 -112 13q-28 10 -55 37t-37 55q-13 39 -13 112v11zM113 1658q0 65 50 110q42 39 103 39q63 0 108 -50q39 -42 39 -100q0 -67 -50 -112q-42 -38 -100 -38q-67 0 -112 50q-38 42 -38 101z M557 1658q0 65 50 110q42 39 103 39q63 0 108 -50q39 -42 39 -100q0 -67 -50 -112q-42 -38 -100 -38q-67 0 -112 50q-38 42 -38 101z" />
<glyph unicode="&#xcc;" horiz-adv-x="504" d="M-52 1714q0 51 40 80q28 21 67 21q21 0 32 -5l241 -113q48 -22 59 -36q22 -28 22 -63q0 -49 -38 -82q-26 -21 -67 -21q-28 0 -45 8l-234 111q-35 17 -43.5 23.5t-17.5 21.5q-16 27 -16 55zM95 189v987q0 89 21 131q18 34 56 56t80 22t80.5 -22t55.5 -56q21 -42 21 -131 v-987q0 -89 -21 -131q-17 -34 -55.5 -56t-80.5 -22t-80 22t-56 56q-21 42 -21 131z" />
<glyph unicode="&#xcd;" horiz-adv-x="504" d="M95 189v987q0 89 21 131q18 34 56 56t80 22t80.5 -22t55.5 -56q21 -42 21 -131v-987q0 -89 -21 -131q-17 -34 -55.5 -56t-80.5 -22t-80 22t-56 56q-21 42 -21 131zM95 1598q0 39 28 70q7 7 54 29l240 113q11 5 32 5q47 0 77 -28q31 -30 31 -72q0 -35 -22 -65 q-10 -14 -56 -36l-234 -111q-17 -8 -44 -8q-49 0 -77 31q-29 31 -29 72z" />
<glyph unicode="&#xce;" horiz-adv-x="504" d="M-54 1600q0 36 24 64q8 10 43 30l199 113q16 9 42 9q23 0 36 -7l196 -114q40 -22 51 -35q22 -24 22 -62q0 -42 -27 -72q-30 -32 -76 -32q-25 0 -38 8l-165 105l-165 -103q-13 -9 -38 -9q-50 0 -80 39q-24 31 -24 66zM95 189v987q0 89 21 131q18 34 56 56t80 22t80.5 -22 t55.5 -56q21 -42 21 -131v-987q0 -89 -21 -131q-17 -34 -55.5 -56t-80.5 -22t-80 22t-56 56q-21 42 -21 131z" />
<glyph unicode="&#xcf;" horiz-adv-x="504" d="M95 189v987q0 89 21 131q18 34 56 56t80 22t80.5 -22t55.5 -56q21 -42 21 -131v-987q0 -89 -21 -131q-17 -34 -55.5 -56t-80.5 -22t-80 22t-56 56q-21 42 -21 131zM-76 1658q0 61 47 104q41 37 98 37q61 0 103 -47q37 -40 37 -95q0 -64 -47 -106q-41 -37 -95 -37 q-64 0 -106 47q-37 41 -37 97zM294 1658q0 61 47 104q40 37 98 37q60 0 103 -47q37 -40 37 -95q0 -64 -47 -106q-41 -37 -96 -37q-63 0 -106 47q-36 41 -36 97z" />
<glyph unicode="&#xd0;" horiz-adv-x="1359" d="M0 689q0 63 45 97q32 25 79 25h27v327q0 63 4 89q12 65 66 106q44 32 120 32h38h256q269 0 438 -124q130 -95 194 -255q58 -147 58 -311q0 -171 -60 -311.5t-172 -231.5q-168 -136 -411 -132l-306 5q-80 0 -121 14q-28 10 -54.5 37t-36.5 55q-13 42 -13 122v332h-27 q-54 0 -88 33q-36 36 -36 91zM465 273h156q171 0 260 91q109 112 109 320q0 214 -124 324q-60 54 -137 70q-65 14 -144 14h-120v-281h110q83 0 121 -14q66 -24 66 -116q0 -85 -66 -105q-39 -11 -121 -11h-110v-292z" />
<glyph unicode="&#xd1;" horiz-adv-x="1394" d="M95 189v1036q0 69 41 115q41 45 117 45q72 0 127 -69l604 -759v619q0 89 21 131q18 34 56 56t80 22t80.5 -22t55.5 -56q21 -42 21 -131v-1017q0 -67 -18 -98q-46 -81 -132 -81q-57 0 -99 38q-12 10 -62 75l-578 734v-638q0 -89 -21 -131q-17 -34 -55.5 -56t-80.5 -22 t-80 22t-56 56q-21 42 -21 131zM333 1608q0 85 68 140q63 50 147 50q49 0 111 -23q16 -6 108 -52q36 -19 70 -19q25 0 38 15q6 7 19 30q26 50 77 50q42 0 67 -31q23 -27 23 -63q0 -88 -80 -146q-57 -42 -135 -42q-66 0 -155 44q-101 50 -134 50q-25 0 -43 -20q-4 -5 -28 -44 q-20 -32 -63 -32t-70 29q-20 22 -20 64z" />
<glyph unicode="&#xd2;" horiz-adv-x="1418" d="M34 682q0 356 223 550q193 167 462 167q197 0 364 -106q171 -109 247 -302q54 -139 54 -307q0 -350 -225 -555q-179 -163 -448 -163q-302 0 -491 201q-186 197 -186 515zM369 690q0 -200 94 -324q42 -56 109 -88t140 -32q139 0 226 96q111 124 111 340q0 213 -101 330 q-92 107 -240 107q-65 0 -129 -29t-109 -80q-101 -114 -101 -320zM389 1714q0 51 40 80q28 21 66 21q19 0 33 -5l309 -113q82 -30 82 -99q0 -49 -38 -82q-26 -21 -66 -21q-24 0 -46 8l-303 111q-77 29 -77 100z" />
<glyph unicode="&#xd3;" horiz-adv-x="1418" d="M34 682q0 356 223 550q193 167 462 167q197 0 364 -106q171 -109 247 -302q54 -139 54 -307q0 -350 -225 -555q-179 -163 -448 -163q-302 0 -491 201q-186 197 -186 515zM369 690q0 -200 94 -324q42 -56 109 -88t140 -32q139 0 226 96q111 124 111 340q0 213 -101 330 q-92 107 -240 107q-65 0 -129 -29t-109 -80q-101 -114 -101 -320zM520 1598q0 70 82 99l309 113q13 5 32 5q46 0 76 -28q31 -30 31 -73q0 -71 -77 -100l-303 -111q-22 -8 -46 -8q-47 0 -75 31q-29 31 -29 72z" />
<glyph unicode="&#xd4;" horiz-adv-x="1418" d="M34 682q0 356 223 550q193 167 462 167q197 0 364 -106q171 -109 247 -302q54 -139 54 -307q0 -350 -225 -555q-179 -163 -448 -163q-302 0 -491 201q-186 197 -186 515zM369 690q0 -200 94 -324q42 -56 109 -88t140 -32q139 0 226 96q111 124 111 340q0 213 -101 330 q-92 107 -240 107q-65 0 -129 -29t-109 -80q-101 -114 -101 -320zM348 1600q0 64 67 94l253 113q21 9 42 9q20 0 36 -7l251 -114q73 -33 73 -97q0 -42 -27 -72q-30 -32 -75 -32q-21 0 -39 8l-220 105l-219 -103q-17 -9 -39 -9q-49 0 -79 39q-24 30 -24 66z" />
<glyph unicode="&#xd5;" horiz-adv-x="1418" d="M34 682q0 356 223 550q193 167 462 167q197 0 364 -106q171 -109 247 -302q54 -139 54 -307q0 -350 -225 -555q-179 -163 -448 -163q-302 0 -491 201q-186 197 -186 515zM369 690q0 -200 94 -324q42 -56 109 -88t140 -32q139 0 226 96q111 124 111 340q0 213 -101 330 q-92 107 -240 107q-65 0 -129 -29t-109 -80q-101 -114 -101 -320zM352 1608q0 85 68 140q63 50 147 50q49 0 111 -23q16 -6 108 -52q36 -19 70 -19q25 0 38 15q6 7 19 30q26 50 77 50q42 0 67 -31q23 -27 23 -63q0 -88 -80 -146q-57 -42 -135 -42q-66 0 -155 44 q-101 50 -134 50q-25 0 -43 -20q-4 -5 -28 -44q-20 -32 -63 -32t-70 29q-20 22 -20 64z" />
<glyph unicode="&#xd6;" horiz-adv-x="1418" d="M34 682q0 356 223 550q193 167 462 167q197 0 364 -106q171 -109 247 -302q54 -139 54 -307q0 -350 -225 -555q-179 -163 -448 -163q-302 0 -491 201q-186 197 -186 515zM369 690q0 -200 94 -324q42 -56 109 -88t140 -32q139 0 226 96q111 124 111 340q0 213 -101 330 q-92 107 -240 107q-65 0 -129 -29t-109 -80q-101 -114 -101 -320zM337 1658q0 65 50 110q42 39 103 39q63 0 108 -50q39 -42 39 -100q0 -67 -50 -112q-42 -38 -100 -38q-67 0 -112 50q-38 42 -38 101zM781 1658q0 65 50 110q42 39 103 39q63 0 108 -50q39 -42 39 -100 q0 -67 -50 -112q-42 -38 -100 -38q-67 0 -112 50q-38 42 -38 101z" />
<glyph unicode="&#xd7;" horiz-adv-x="1092" d="M147 386q0 39 50 89l214 215l-214 214q-50 50 -50 89q0 40 28 68t68 28q38 0 88 -51l215 -214l214 214q51 51 89 51q40 0 68 -28t28 -68q0 -39 -50 -89l-215 -214l215 -215q50 -50 50 -89q0 -40 -28 -68t-68 -28q-38 0 -89 51l-214 214l-215 -214q-50 -51 -88 -51 q-40 0 -68 28t-28 68z" />
<glyph unicode="&#xd8;" horiz-adv-x="1418" d="M34 681q0 331 196 527q190 191 486 191q122 0 223 -35q47 -17 122 -58l34 41q32 38 50 51q31 23 67 23q45 0 79 -28q43 -36 43 -93q0 -43 -54 -108l-36 -42q66 -92 94 -167q47 -126 47 -289q0 -322 -183 -521q-189 -207 -495 -207q-120 0 -222 38q-48 18 -137 66l-24 -29 q-31 -38 -49 -52q-32 -24 -70 -24q-43 0 -77 27q-45 37 -45 94q0 42 53 108l35 43q-73 100 -101 188q-36 113 -36 256zM348 673q0 -97 32 -185l493 591q-73 40 -148 40q-161 0 -260 -94q-93 -87 -111 -251q-6 -48 -6 -101zM538 293q81 -47 166 -47q181 0 279 129 q88 116 88 318q0 102 -35 205z" />
<glyph unicode="&#xd9;" horiz-adv-x="1352" d="M82 518v658q0 89 21 131q18 34 56 56t80 22t80.5 -22t55.5 -56q21 -42 21 -131v-613q0 -133 64 -210q36 -42 95 -68t121 -26q66 0 126 28.5t96 77.5q58 77 58 234v577q0 89 21 131q18 34 56 56t80 22t80.5 -22t55.5 -56q21 -42 21 -131v-577q0 -194 -41 -290 q-72 -167 -239 -262q-144 -81 -317 -81q-138 0 -262.5 55t-207.5 154q-121 143 -121 343zM349 1714q0 51 40 80q28 21 66 21q19 0 33 -5l309 -113q82 -30 82 -99q0 -49 -38 -82q-26 -21 -66 -21q-24 0 -46 8l-303 111q-77 29 -77 100z" />
<glyph unicode="&#xda;" horiz-adv-x="1352" d="M82 518v658q0 89 21 131q18 34 56 56t80 22t80.5 -22t55.5 -56q21 -42 21 -131v-613q0 -133 64 -210q36 -42 95 -68t121 -26q66 0 126 28.5t96 77.5q58 77 58 234v577q0 89 21 131q18 34 56 56t80 22t80.5 -22t55.5 -56q21 -42 21 -131v-577q0 -194 -41 -290 q-72 -167 -239 -262q-144 -81 -317 -81q-138 0 -262.5 55t-207.5 154q-121 143 -121 343zM486 1598q0 70 82 99l309 113q13 5 32 5q46 0 76 -28q31 -30 31 -73q0 -71 -77 -100l-303 -111q-22 -8 -46 -8q-47 0 -75 31q-29 31 -29 72z" />
<glyph unicode="&#xdb;" horiz-adv-x="1352" d="M82 518v658q0 89 21 131q18 34 56 56t80 22t80.5 -22t55.5 -56q21 -42 21 -131v-613q0 -133 64 -210q36 -42 95 -68t121 -26q66 0 126 28.5t96 77.5q58 77 58 234v577q0 89 21 131q18 34 56 56t80 22t80.5 -22t55.5 -56q21 -42 21 -131v-577q0 -194 -41 -290 q-72 -167 -239 -262q-144 -81 -317 -81q-138 0 -262.5 55t-207.5 154q-121 143 -121 343zM315 1600q0 64 67 94l253 113q21 9 42 9q20 0 36 -7l251 -114q73 -33 73 -97q0 -42 -27 -72q-30 -32 -75 -32q-21 0 -39 8l-220 105l-219 -103q-17 -9 -39 -9q-49 0 -79 39 q-24 30 -24 66z" />
<glyph unicode="&#xdc;" horiz-adv-x="1352" d="M82 518v658q0 89 21 131q18 34 56 56t80 22t80.5 -22t55.5 -56q21 -42 21 -131v-613q0 -133 64 -210q36 -42 95 -68t121 -26q66 0 126 28.5t96 77.5q58 77 58 234v577q0 89 21 131q18 34 56 56t80 22t80.5 -22t55.5 -56q21 -42 21 -131v-577q0 -194 -41 -290 q-72 -167 -239 -262q-144 -81 -317 -81q-138 0 -262.5 55t-207.5 154q-121 143 -121 343zM304 1658q0 65 50 110q42 39 103 39q63 0 108 -50q39 -42 39 -100q0 -67 -50 -112q-42 -38 -100 -38q-67 0 -112 50q-38 42 -38 101zM748 1658q0 65 50 110q42 39 103 39 q63 0 108 -50q39 -42 39 -100q0 -67 -50 -112q-42 -38 -100 -38q-67 0 -112 50q-38 42 -38 101z" />
<glyph unicode="&#xdd;" horiz-adv-x="1179" d="M34 1236q0 53 42 99q46 50 116 50q63 0 112 -51q14 -15 45 -60l232 -331l244 335q38 52 61 72q42 36 96 36q82 0 128 -66q31 -43 31 -83q0 -61 -63 -144l-340 -449v-455q0 -89 -21 -131q-17 -34 -55.5 -56t-80.5 -22t-80.5 22t-55.5 56q-21 42 -21 131v455l-329 451 q-61 84 -61 141zM427 1598q0 70 82 99l309 113q13 5 32 5q46 0 76 -28q31 -30 31 -73q0 -71 -77 -100l-303 -111q-22 -8 -46 -8q-47 0 -75 31q-29 31 -29 72z" />
<glyph unicode="&#xde;" horiz-adv-x="1131" d="M102 189v988q0 88 21 130q18 34 56 56t80 22q70 0 117 -51q40 -44 40 -146h196q227 0 349 -114q67 -63 105 -155.5t38 -192.5q0 -181 -105 -311q-118 -145 -345 -145h-238v-81q0 -89 -21 -131q-17 -34 -55.5 -56t-80.5 -22t-80 22t-56 56q-21 42 -21 131zM416 543h159 q100 0 156 56q52 53 52 128q0 82 -53 136q-51 52 -139 52h-175v-372z" />
<glyph unicode="&#xdf;" horiz-adv-x="1122" d="M88 187v845q0 216 131 344q129 126 330 126q182 0 304 -115q125 -118 125 -290q0 -98 -41 -172q-24 -42 -89 -95q75 -28 112 -61q127 -118 127 -306q0 -185 -127 -328q-138 -155 -322 -155q-89 0 -133 45q-38 39 -38 97q0 68 48 104q18 14 94 35q89 24 131 88 q35 54 35 123q0 156 -155 189q-75 15 -92 24q-73 37 -73 122q0 60 29 95q21 24 81 41q119 34 119 138q0 70 -54 111q-38 30 -90 30q-85 0 -123 -65q-29 -49 -29 -163v-807q0 -86 -20 -126q-17 -33 -53.5 -54t-76.5 -21t-76.5 21t-53.5 54q-20 40 -20 126z" />
<glyph unicode="&#xe0;" horiz-adv-x="1148" d="M34 524q0 242 157 398q138 136 315 136q99 0 173 -46q32 -21 82 -72q25 59 56 82q41 30 93 30q58 0 103 -42q46 -44 46 -112v-735q0 -83 -46 -132q-42 -45 -105 -45q-105 0 -150 119q-51 -62 -90 -86q-65 -39 -159 -39q-167 0 -297 115q-178 157 -178 429zM334 519 q0 -114 56 -186q58 -73 153 -73q83 0 142 65q66 73 66 195q0 124 -64 193q-60 65 -148 65q-91 0 -149 -72q-56 -72 -56 -187zM261 1393q0 46 35 79q27 24 66 24q21 0 38 -7l309 -126q45 -19 60 -37q22 -27 22 -62q0 -49 -38 -82q-26 -21 -68 -21q-26 0 -44 8l-303 124 q-77 32 -77 100z" />
<glyph unicode="&#xe1;" horiz-adv-x="1148" d="M34 524q0 242 157 398q138 136 315 136q99 0 173 -46q32 -21 82 -72q25 59 56 82q41 30 93 30q58 0 103 -42q46 -44 46 -112v-735q0 -83 -46 -132q-42 -45 -105 -45q-105 0 -150 119q-51 -62 -90 -86q-65 -39 -159 -39q-167 0 -297 115q-178 157 -178 429zM334 519 q0 -114 56 -186q58 -73 153 -73q83 0 142 65q66 73 66 195q0 124 -64 193q-60 65 -148 65q-91 0 -149 -72q-56 -72 -56 -187zM384 1264q0 41 28 69q13 13 54 30l309 126q17 7 37 7q46 0 74 -32q28 -31 28 -71q0 -68 -77 -100l-303 -124q-19 -8 -45 -8q-48 0 -76 31 q-29 31 -29 72z" />
<glyph unicode="&#xe2;" horiz-adv-x="1148" d="M34 524q0 242 157 398q138 136 315 136q99 0 173 -46q32 -21 82 -72q25 59 56 82q41 30 93 30q58 0 103 -42q46 -44 46 -112v-735q0 -83 -46 -132q-42 -45 -105 -45q-105 0 -150 119q-51 -62 -90 -86q-65 -39 -159 -39q-167 0 -297 115q-178 157 -178 429zM334 519 q0 -114 56 -186q58 -73 153 -73q83 0 142 65q66 73 66 195q0 124 -64 193q-60 65 -148 65q-91 0 -149 -72q-56 -72 -56 -187zM227 1266q0 60 67 93l253 127q18 9 43 9q21 0 35 -7l251 -127q73 -37 73 -98q0 -41 -27 -71q-29 -32 -75 -32q-24 0 -39 8l-220 118l-219 -117 q-15 -8 -39 -8q-49 0 -79 39q-24 30 -24 66z" />
<glyph unicode="&#xe3;" horiz-adv-x="1148" d="M34 524q0 242 157 398q138 136 315 136q99 0 173 -46q32 -21 82 -72q25 59 56 82q41 30 93 30q58 0 103 -42q46 -44 46 -112v-735q0 -83 -46 -132q-42 -45 -105 -45q-105 0 -150 119q-51 -62 -90 -86q-65 -39 -159 -39q-167 0 -297 115q-178 157 -178 429zM334 519 q0 -114 56 -186q58 -73 153 -73q83 0 142 65q66 73 66 195q0 124 -64 193q-60 65 -148 65q-91 0 -149 -72q-56 -72 -56 -187zM217 1273q0 85 68 140q63 50 147 50q49 0 111 -22q16 -6 108 -53q36 -18 70 -18q25 0 38 15q6 6 19 30q26 49 77 49q42 0 67 -31q23 -27 23 -63 q0 -87 -80 -146q-57 -41 -135 -41q-66 0 -155 44q-102 49 -134 49q-25 0 -43 -20q-4 -5 -28 -45q-20 -31 -63 -31t-70 29q-20 22 -20 64z" />
<glyph unicode="&#xe4;" horiz-adv-x="1148" d="M34 524q0 242 157 398q138 136 315 136q99 0 173 -46q32 -21 82 -72q25 59 56 82q41 30 93 30q58 0 103 -42q46 -44 46 -112v-735q0 -83 -46 -132q-42 -45 -105 -45q-105 0 -150 119q-51 -62 -90 -86q-65 -39 -159 -39q-167 0 -297 115q-178 157 -178 429zM334 519 q0 -114 56 -186q58 -73 153 -73q83 0 142 65q66 73 66 195q0 124 -64 193q-60 65 -148 65q-91 0 -149 -72q-56 -72 -56 -187zM216 1323q0 65 50 110q42 39 103 39q63 0 108 -50q39 -42 39 -100q0 -67 -50 -112q-42 -38 -100 -38q-67 0 -112 50q-38 42 -38 101zM660 1323 q0 65 50 110q42 39 103 39q63 0 108 -50q39 -42 39 -100q0 -67 -50 -112q-42 -38 -100 -38q-67 0 -112 50q-38 42 -38 101z" />
<glyph unicode="&#xe5;" horiz-adv-x="1148" d="M34 524q0 242 157 398q138 136 315 136q99 0 173 -46q32 -21 82 -72q25 59 56 82q41 30 93 30q58 0 103 -42q46 -44 46 -112v-735q0 -83 -46 -132q-42 -45 -105 -45q-105 0 -150 119q-51 -62 -90 -86q-65 -39 -159 -39q-167 0 -297 115q-178 157 -178 429zM334 519 q0 -114 56 -186q58 -73 153 -73q83 0 142 65q66 73 66 195q0 124 -64 193q-60 65 -148 65q-91 0 -149 -72q-56 -72 -56 -187zM379 1357q0 87 67 147q56 52 138 52q86 0 146 -66q52 -57 52 -135q0 -90 -67 -149q-57 -52 -134 -52q-90 0 -150 66q-52 58 -52 137zM503 1355 q0 -34 26 -57q22 -20 52 -20q34 0 57 26q20 21 20 52q0 33 -26 56q-22 20 -53 20q-33 0 -56 -26q-20 -22 -20 -51z" />
<glyph unicode="&#xe6;" horiz-adv-x="1776" d="M34 526q0 226 137 379q65 73 153 113.5t181 40.5q84 0 154 -32q45 -21 99 -85q2 58 26 81q31 29 95 29q48 0 76 -17q24 -14 37 -56q61 46 113 61q59 18 127 18q207 0 354 -152q78 -80 121 -192q35 -89 35 -177q0 -56 -33 -81q-30 -23 -110 -23h-554q29 -74 61 -103 q76 -70 193 -70q56 0 114 17q15 5 112 40q37 14 73 14q50 0 87 -33q40 -36 40 -89q0 -85 -98 -141q-69 -40 -162.5 -64t-179.5 -24q-91 0 -171 24q-52 16 -122 73q-3 -91 -124 -91q-68 0 -95 42q-16 25 -19 80q-33 -43 -54.5 -61t-57.5 -34q-78 -34 -153 -34q-124 0 -243 81 q-108 74 -166 223q-46 121 -46 243zM334 517q0 -110 52 -180q58 -78 150 -78q43 0 85.5 21.5t68.5 55.5q55 75 55 194t-60 187q-55 62 -146 62t-150 -76q-55 -72 -55 -186zM1039 632h404q-50 188 -202 188q-79 0 -138 -59q-44 -44 -64 -129z" />
<glyph unicode="&#xe7;" horiz-adv-x="936" d="M34 514q0 262 157 407q70 64 165.5 101t192.5 37q148 0 260 -61q39 -22 61.5 -59t22.5 -78q0 -59 -40 -102q-32 -34 -78 -34q-30 0 -109 30q-64 24 -109 24q-88 0 -153 -66q-69 -71 -69 -194q0 -126 69 -195q64 -64 160 -64q57 0 120 29q55 26 87 26q58 0 93 -46 q31 -42 31 -90q0 -95 -128 -152q-75 -33 -162 -43l-144 -302q-21 -44 -78 -44q-53 0 -84 39q-18 24 -18 52q0 25 18 62l101 205q-140 43 -229 140q-137 149 -137 378z" />
<glyph unicode="&#xe8;" horiz-adv-x="1082" d="M34 503q0 263 169 420q146 135 346 135q175 0 311 -108q131 -105 174 -285q15 -64 15 -128q0 -118 -131 -118h-560q33 -90 91.5 -133.5t146.5 -43.5q64 0 129 26q17 7 119 57q31 15 69 15q52 0 88 -47q30 -38 30 -76q0 -85 -121 -154q-145 -83 -329 -83q-275 0 -433 191 q-114 138 -114 332zM347 624h406q-19 73 -44 109q-54 79 -152 79q-84 0 -143 -61q-38 -40 -67 -127zM242 1393q0 46 35 79q27 24 66 24q21 0 38 -7l309 -126q45 -19 60 -37q22 -27 22 -62q0 -49 -38 -82q-26 -21 -68 -21q-26 0 -44 8l-303 124q-77 32 -77 100z" />
<glyph unicode="&#xe9;" horiz-adv-x="1082" d="M34 503q0 263 169 420q146 135 346 135q175 0 311 -108q131 -105 174 -285q15 -64 15 -128q0 -118 -131 -118h-560q33 -90 91.5 -133.5t146.5 -43.5q64 0 129 26q17 7 119 57q31 15 69 15q52 0 88 -47q30 -38 30 -76q0 -85 -121 -154q-145 -83 -329 -83q-275 0 -433 191 q-114 138 -114 332zM347 624h406q-19 73 -44 109q-54 79 -152 79q-84 0 -143 -61q-38 -40 -67 -127zM352 1264q0 41 28 69q13 13 54 30l309 126q17 7 37 7q46 0 74 -32q28 -31 28 -71q0 -68 -77 -100l-303 -124q-19 -8 -45 -8q-48 0 -76 31q-29 31 -29 72z" />
<glyph unicode="&#xea;" horiz-adv-x="1082" d="M34 503q0 263 169 420q146 135 346 135q175 0 311 -108q131 -105 174 -285q15 -64 15 -128q0 -118 -131 -118h-560q33 -90 91.5 -133.5t146.5 -43.5q64 0 129 26q17 7 119 57q31 15 69 15q52 0 88 -47q30 -38 30 -76q0 -85 -121 -154q-145 -83 -329 -83q-275 0 -433 191 q-114 138 -114 332zM347 624h406q-19 73 -44 109q-54 79 -152 79q-84 0 -143 -61q-38 -40 -67 -127zM180 1266q0 60 67 93l253 127q18 9 43 9q21 0 35 -7l251 -127q73 -37 73 -98q0 -41 -27 -71q-29 -32 -75 -32q-24 0 -39 8l-220 118l-219 -117q-15 -8 -39 -8q-49 0 -79 39 q-24 30 -24 66z" />
<glyph unicode="&#xeb;" horiz-adv-x="1082" d="M34 503q0 263 169 420q146 135 346 135q175 0 311 -108q131 -105 174 -285q15 -64 15 -128q0 -118 -131 -118h-560q33 -90 91.5 -133.5t146.5 -43.5q64 0 129 26q17 7 119 57q31 15 69 15q52 0 88 -47q30 -38 30 -76q0 -85 -121 -154q-145 -83 -329 -83q-275 0 -433 191 q-114 138 -114 332zM347 624h406q-19 73 -44 109q-54 79 -152 79q-84 0 -143 -61q-38 -40 -67 -127zM169 1323q0 65 50 110q42 39 103 39q63 0 108 -50q39 -42 39 -100q0 -67 -50 -112q-42 -38 -100 -38q-67 0 -112 50q-38 42 -38 101zM613 1323q0 65 50 110q42 39 103 39 q63 0 108 -50q39 -42 39 -100q0 -67 -50 -112q-42 -38 -100 -38q-67 0 -112 50q-38 42 -38 101z" />
<glyph unicode="&#xec;" horiz-adv-x="527" d="M-31 1397q0 46 35 79q27 24 62 24q22 0 42 -11l227 -126q43 -24 59 -41q23 -25 23 -62q0 -50 -38 -82q-27 -22 -62 -22q-28 0 -50 13l-221 124q-48 28 -61 49q-16 27 -16 55zM116 187v664q0 86 20 126q17 33 53.5 54t76.5 21t76.5 -21t53.5 -54q20 -40 20 -126v-664 q0 -85 -20 -126q-17 -33 -53.5 -54t-76.5 -21t-76.5 21.5t-53.5 53.5q-20 40 -20 126z" />
<glyph unicode="&#xed;" horiz-adv-x="527" d="M110 187v664q0 85 20 126q17 33 53 54t77 21q40 0 76.5 -21t53.5 -54q20 -40 20 -126v-664q0 -85 -20 -126q-17 -33 -53.5 -54t-76.5 -21t-76.5 21t-53.5 54q-20 40 -20 126zM110 1260q0 41 30 68q15 14 52 35l227 126q19 11 42 11q40 0 69 -32q28 -31 28 -71 q0 -34 -22 -64q-11 -15 -55 -40l-221 -124q-22 -13 -50 -13q-43 0 -71 31q-29 31 -29 73z" />
<glyph unicode="&#xee;" horiz-adv-x="526" d="M-43 1265q0 52 37 75l229 145q16 10 39 10t39 -10l231 -146q38 -24 38 -75q0 -58 -46 -87q-25 -17 -61 -17q-23 0 -34 8l-165 118l-165 -117q-11 -8 -37 -8q-51 0 -81 39q-24 30 -24 65zM110 187v664q0 86 20 126q17 33 53.5 54t76.5 21t76.5 -21t53.5 -54 q20 -40 20 -126v-664q0 -85 -20 -126q-17 -33 -53.5 -54t-76.5 -21t-76.5 21.5t-53.5 53.5q-20 40 -20 126z" />
<glyph unicode="&#xef;" horiz-adv-x="526" d="M110 187v664q0 85 20 126q17 33 53 54t77 21q40 0 76.5 -21t53.5 -54q20 -40 20 -126v-664q0 -85 -20 -126q-17 -33 -53.5 -54t-76.5 -21t-76.5 21t-53.5 54q-20 40 -20 126zM-61 1324q0 61 47 104q41 37 98 37q61 0 103 -47q37 -40 37 -95q0 -64 -47 -106 q-41 -37 -95 -37q-64 0 -106 47q-37 41 -37 97zM302 1324q0 62 47 104q40 37 98 37q60 0 103 -47q37 -41 37 -95q0 -64 -47 -106q-41 -37 -96 -37q-63 0 -106 47q-36 41 -36 97z" />
<glyph unicode="&#xf0;" horiz-adv-x="1078" d="M35 514q0 199 111 342q128 166 339 181q17 1 62 4q-21 16 -54 45q-27 22 -73 61l-134 -67q-35 -18 -60 -18q-38 0 -65 32q-27 30 -27 69q0 41 33 67q15 11 49 28l53 26q-42 46 -42 93q0 60 43 103q36 36 91 36q74 0 179 -103l141 70q21 11 47 11q45 0 73 -38 q23 -32 23 -68q0 -49 -67 -82l-74 -36q153 -147 239 -303q120 -215 120 -435q0 -240 -135 -388q-74 -83 -181 -126q-92 -38 -188 -38q-103 0 -201 43.5t-168 120.5q-134 148 -134 370zM333 519q0 -104 50 -174q60 -85 151 -85q81 0 142 64q70 73 70 195t-70 196 q-60 64 -144 64q-88 0 -149 -85q-50 -69 -50 -175z" />
<glyph unicode="&#xf1;" horiz-adv-x="1116" d="M88 187v688q0 83 42 129q44 48 111 48q56 0 94 -33q25 -21 45 -72q65 60 117 82q71 29 161 29q157 0 260 -91q71 -62 92 -136q17 -58 17 -152v-492q0 -86 -20 -126q-16 -32 -53 -53.5t-77 -21.5t-76.5 21t-53.5 54q-20 40 -20 126v421q0 86 -43 135q-49 56 -126 56 q-80 0 -129 -60q-41 -51 -41 -118v-434q0 -85 -20 -126q-17 -33 -53.5 -54t-76.5 -21t-76.5 21t-53.5 54q-20 40 -20 126zM194 1273q0 85 68 140q63 50 147 50q49 0 111 -22q16 -6 108 -53q36 -18 70 -18q25 0 38 15q6 6 19 30q26 49 77 49q42 0 67 -31q23 -27 23 -63 q0 -87 -80 -146q-57 -41 -135 -41q-66 0 -155 44q-102 49 -134 49q-25 0 -43 -20q-4 -5 -28 -45q-20 -31 -63 -31t-70 29q-20 22 -20 64z" />
<glyph unicode="&#xf2;" horiz-adv-x="1078" d="M35 517q0 233 134 377q153 164 376 164q98 0 196 -44.5t167 -119.5q134 -147 134 -375q0 -227 -134 -375q-75 -83 -182 -126q-92 -38 -187 -38q-104 0 -202 43.5t-168 120.5q-134 148 -134 373zM333 519q0 -105 50 -175q60 -84 151 -84q81 0 142 64q70 72 70 194 q0 123 -70 196q-60 64 -144 64q-88 0 -149 -85q-50 -69 -50 -174zM205 1393q0 46 35 79q27 24 66 24q21 0 38 -7l309 -126q45 -19 60 -37q22 -27 22 -62q0 -49 -38 -82q-26 -21 -68 -21q-26 0 -44 8l-303 124q-77 32 -77 100z" />
<glyph unicode="&#xf3;" horiz-adv-x="1078" d="M35 517q0 233 134 377q153 164 376 164q98 0 196 -44.5t167 -119.5q134 -147 134 -375q0 -227 -134 -375q-75 -83 -182 -126q-92 -38 -187 -38q-104 0 -202 43.5t-168 120.5q-134 148 -134 373zM333 519q0 -105 50 -175q60 -84 151 -84q81 0 142 64q70 72 70 194 q0 123 -70 196q-60 64 -144 64q-88 0 -149 -85q-50 -69 -50 -174zM349 1264q0 41 28 69q13 13 54 30l309 126q17 7 37 7q46 0 74 -32q28 -31 28 -71q0 -68 -77 -100l-303 -124q-19 -8 -45 -8q-48 0 -76 31q-29 31 -29 72z" />
<glyph unicode="&#xf4;" horiz-adv-x="1078" d="M35 517q0 233 134 377q153 164 376 164q98 0 196 -44.5t167 -119.5q134 -147 134 -375q0 -227 -134 -375q-75 -83 -182 -126q-92 -38 -187 -38q-104 0 -202 43.5t-168 120.5q-134 148 -134 373zM333 519q0 -105 50 -175q60 -84 151 -84q81 0 142 64q70 72 70 194 q0 123 -70 196q-60 64 -144 64q-88 0 -149 -85q-50 -69 -50 -174zM178 1266q0 60 67 93l253 127q18 9 43 9q21 0 35 -7l251 -127q73 -37 73 -98q0 -41 -27 -71q-29 -32 -75 -32q-24 0 -39 8l-220 118l-219 -117q-15 -8 -39 -8q-49 0 -79 39q-24 30 -24 66z" />
<glyph unicode="&#xf5;" horiz-adv-x="1078" d="M35 517q0 233 134 377q153 164 376 164q98 0 196 -44.5t167 -119.5q134 -147 134 -375q0 -227 -134 -375q-75 -83 -182 -126q-92 -38 -187 -38q-104 0 -202 43.5t-168 120.5q-134 148 -134 373zM333 519q0 -105 50 -175q60 -84 151 -84q81 0 142 64q70 72 70 194 q0 123 -70 196q-60 64 -144 64q-88 0 -149 -85q-50 -69 -50 -174zM182 1273q0 85 68 140q63 50 147 50q49 0 111 -22q16 -6 108 -53q36 -18 70 -18q25 0 38 15q6 6 19 30q26 49 77 49q42 0 67 -31q23 -27 23 -63q0 -87 -80 -146q-57 -41 -135 -41q-66 0 -155 44 q-102 49 -134 49q-25 0 -43 -20q-4 -5 -28 -45q-20 -31 -63 -31t-70 29q-20 22 -20 64z" />
<glyph unicode="&#xf6;" horiz-adv-x="1078" d="M35 517q0 233 134 377q153 164 376 164q98 0 196 -44.5t167 -119.5q134 -147 134 -375q0 -227 -134 -375q-75 -83 -182 -126q-92 -38 -187 -38q-104 0 -202 43.5t-168 120.5q-134 148 -134 373zM333 519q0 -105 50 -175q60 -84 151 -84q81 0 142 64q70 72 70 194 q0 123 -70 196q-60 64 -144 64q-88 0 -149 -85q-50 -69 -50 -174zM167 1323q0 65 50 110q42 39 103 39q63 0 108 -50q39 -42 39 -100q0 -67 -50 -112q-42 -38 -100 -38q-67 0 -112 50q-38 42 -38 101zM611 1323q0 65 50 110q42 39 103 39q63 0 108 -50q39 -42 39 -100 q0 -67 -50 -112q-42 -38 -100 -38q-67 0 -112 50q-38 42 -38 101z" />
<glyph unicode="&#xf7;" horiz-adv-x="1092" d="M68 690q0 58 48 82q25 13 79 13h702q54 0 79 -13q48 -24 48 -82t-47 -82q-26 -13 -89 -13h-693q-54 0 -79 13q-48 24 -48 82zM392 313q0 65 45 109q46 45 111 45q61 0 106 -45q45 -44 45 -109q0 -63 -45 -108t-108 -45q-64 0 -109 45t-45 108zM392 1064q0 65 45 109 q46 45 111 45q61 0 106 -45t45 -108q0 -64 -45 -109t-108 -45q-64 0 -109 45t-45 108z" />
<glyph unicode="&#xf8;" horiz-adv-x="1184" d="M78 98q0 45 57 107l20 22q-73 153 -73 292q0 216 135 367q74 82 175 127t211 45q128 0 260 -76l15 16q62 66 112 66q46 0 80 -32q38 -35 38 -86q0 -44 -59 -107l-22 -24q38 -71 52 -128q20 -80 20 -163q0 -241 -149 -393q-70 -72 -166.5 -111.5t-200.5 -39.5 q-146 0 -265 79l-12 -13q-61 -65 -111 -65q-46 0 -80 32q-37 35 -37 85zM355 531q0 -44 18 -109l309 349q-49 28 -94 28q-106 0 -171 -83q-62 -79 -62 -185zM496 261q43 -24 92 -24q117 0 184 95q52 74 52 184q0 47 -12 104z" />
<glyph unicode="&#xf9;" horiz-adv-x="1111" d="M88 405v446q0 85 20 126q17 33 53 54t77 21q40 0 76.5 -21t53.5 -54q20 -40 20 -126v-409q0 -63 20 -95q51 -82 147 -82q70 0 119 48q48 46 48 129v409q0 86 20 126q17 33 53.5 54t76.5 21t76.5 -21t53.5 -54q20 -40 20 -126v-446q0 -153 -73 -248q-62 -80 -160 -126 q-110 -52 -234 -52q-174 0 -305 93q-102 72 -138 172q-24 68 -24 161zM222 1393q0 46 35 79q27 24 66 24q21 0 38 -7l309 -126q45 -19 60 -37q22 -27 22 -62q0 -49 -38 -82q-26 -21 -68 -21q-26 0 -44 8l-303 124q-77 32 -77 100z" />
<glyph unicode="&#xfa;" horiz-adv-x="1111" d="M88 405v446q0 85 20 126q17 33 53 54t77 21q40 0 76.5 -21t53.5 -54q20 -40 20 -126v-409q0 -63 20 -95q51 -82 147 -82q70 0 119 48q48 46 48 129v409q0 86 20 126q17 33 53.5 54t76.5 21t76.5 -21t53.5 -54q20 -40 20 -126v-446q0 -153 -73 -248q-62 -80 -160 -126 q-110 -52 -234 -52q-174 0 -305 93q-102 72 -138 172q-24 68 -24 161zM379 1264q0 41 28 69q13 13 54 30l309 126q17 7 37 7q46 0 74 -32q28 -31 28 -71q0 -68 -77 -100l-303 -124q-19 -8 -45 -8q-48 0 -76 31q-29 31 -29 72z" />
<glyph unicode="&#xfb;" horiz-adv-x="1111" d="M88 405v446q0 85 20 126q17 33 53 54t77 21q40 0 76.5 -21t53.5 -54q20 -40 20 -126v-409q0 -63 20 -95q51 -82 147 -82q70 0 119 48q48 46 48 129v409q0 86 20 126q17 33 53.5 54t76.5 21t76.5 -21t53.5 -54q20 -40 20 -126v-446q0 -153 -73 -248q-62 -80 -160 -126 q-110 -52 -234 -52q-174 0 -305 93q-102 72 -138 172q-24 68 -24 161zM194 1266q0 60 67 93l253 127q18 9 43 9q21 0 35 -7l251 -127q73 -37 73 -98q0 -41 -27 -71q-29 -32 -75 -32q-24 0 -39 8l-220 118l-219 -117q-15 -8 -39 -8q-49 0 -79 39q-24 30 -24 66z" />
<glyph unicode="&#xfc;" horiz-adv-x="1111" d="M88 405v446q0 85 20 126q17 33 53 54t77 21q40 0 76.5 -21t53.5 -54q20 -40 20 -126v-409q0 -63 20 -95q51 -82 147 -82q70 0 119 48q48 46 48 129v409q0 86 20 126q17 33 53.5 54t76.5 21t76.5 -21t53.5 -54q20 -40 20 -126v-446q0 -153 -73 -248q-62 -80 -160 -126 q-110 -52 -234 -52q-174 0 -305 93q-102 72 -138 172q-24 68 -24 161zM183 1323q0 65 50 110q42 39 103 39q63 0 108 -50q39 -42 39 -100q0 -67 -50 -112q-42 -38 -100 -38q-67 0 -112 50q-38 42 -38 101zM627 1323q0 65 50 110q42 39 103 39q63 0 108 -50q39 -42 39 -100 q0 -67 -50 -112q-42 -38 -100 -38q-67 0 -112 50q-38 42 -38 101z" />
<glyph unicode="&#xfd;" horiz-adv-x="1018" d="M21 909q0 73 65 118q38 26 86 26q56 0 93 -32q33 -30 65 -110l176 -445l176 442q32 82 66 112q38 33 95 33t100 -36q53 -45 53 -110q0 -41 -31 -114l-458 -1092q-24 -57 -41 -81q-43 -58 -117 -58q-56 0 -99 37q-51 44 -51 106q0 41 31 113l118 277l-297 702 q-30 72 -30 112zM346 1264q0 41 28 69q13 13 54 30l309 126q17 7 37 7q46 0 74 -32q28 -31 28 -71q0 -68 -77 -100l-303 -124q-19 -8 -45 -8q-48 0 -76 31q-29 31 -29 72z" />
<glyph unicode="&#xfe;" horiz-adv-x="1126" d="M88 -223v1525q0 85 20 125q17 33 53.5 54t76.5 21t76.5 -21t53.5 -54q20 -40 20 -125v-364q42 61 93 85q76 36 165 36q161 0 281 -116q164 -160 164 -414q0 -234 -136 -397q-128 -152 -328 -152q-79 0 -144 28q-36 15 -95 60v-291q0 -85 -20 -125q-17 -33 -53.5 -54 t-76.5 -21t-76.5 21t-53.5 54q-20 40 -20 125zM379 519q0 -120 65 -196q53 -63 138 -63q93 0 149 77q59 80 59 182q0 105 -59 183q-57 77 -151 77q-83 0 -136 -63q-65 -76 -65 -197z" />
<glyph unicode="&#xff;" horiz-adv-x="1018" d="M21 909q0 73 65 118q38 26 86 26q56 0 93 -32q33 -30 65 -110l176 -445l176 442q32 82 66 112q38 33 95 33t100 -36q53 -45 53 -110q0 -41 -31 -114l-458 -1092q-24 -57 -41 -81q-43 -58 -117 -58q-56 0 -99 37q-51 44 -51 106q0 41 31 113l118 277l-297 702 q-30 72 -30 112zM137 1323q0 65 50 110q42 39 103 39q63 0 108 -50q39 -42 39 -100q0 -67 -50 -112q-42 -38 -100 -38q-67 0 -112 50q-38 42 -38 101zM581 1323q0 65 50 110q42 39 103 39q63 0 108 -50q39 -42 39 -100q0 -67 -50 -112q-42 -38 -100 -38q-67 0 -112 50 q-38 42 -38 101z" />
<glyph unicode="&#x131;" horiz-adv-x="526" d="M110 187v664q0 85 20 126q17 33 53 54t77 21q40 0 76.5 -21t53.5 -54q20 -40 20 -126v-664q0 -85 -20 -126q-17 -33 -53.5 -54t-76.5 -21t-76.5 21t-53.5 54q-20 40 -20 126z" />
<glyph unicode="&#x152;" horiz-adv-x="1917" d="M34 671q0 164 54.5 307.5t154.5 240.5q186 181 472 181q133 0 233 -44q58 -26 133 -91q3 55 20 74q22 25 85 26h490q79 0 116 -19q31 -15 50.5 -49t19.5 -72t-19.5 -72t-50.5 -49q-37 -19 -116 -19h-312v-258h272q80 0 117 -19q31 -15 50.5 -49t19.5 -72t-19.5 -72 t-50.5 -49q-37 -19 -117 -19h-272v-267h312q79 0 116 -19q31 -15 50.5 -49t19.5 -72t-19.5 -72t-50.5 -49q-37 -19 -116 -19h-483q-50 0 -66 6q-46 16 -46 66v14q-80 -57 -149 -81q-112 -39 -237 -39q-139 0 -264 49t-210 136q-93 94 -140 235q-47 137 -47 285zM374 683 q0 -200 89 -316q94 -121 251 -121q139 0 226 97q112 126 112 338q0 217 -112 342q-87 97 -231 97q-71 0 -136.5 -32.5t-109.5 -88.5q-89 -115 -89 -316z" />
<glyph unicode="&#x153;" horiz-adv-x="1779" d="M34 518q0 224 128 372q68 80 165.5 124t204.5 44q101 0 197 -34q76 -28 170 -106q139 140 340 140q277 0 417 -235q63 -105 82 -247q6 -40 6 -61q0 -81 -126 -81h-567q12 -53 30 -81t56 -52q67 -41 158 -41q59 0 122 19q15 4 112 41q41 15 76 15q51 0 87 -45 q32 -39 32 -90q0 -78 -83 -126q-162 -94 -375 -94q-229 0 -379 146q-163 -147 -349 -147q-220 0 -360 149q-144 153 -144 390zM334 519q0 -116 62 -191q56 -69 134 -69q92 0 153 71q61 73 61 186q0 121 -65 198q-55 64 -142 64q-85 0 -144 -70q-59 -71 -59 -189zM1043 631 h406q-24 96 -73 142t-126 46q-78 0 -135 -54q-41 -40 -72 -134z" />
<glyph unicode="&#x178;" horiz-adv-x="1179" d="M34 1236q0 53 42 99q46 50 116 50q63 0 112 -51q14 -15 45 -60l232 -331l244 335q38 52 61 72q42 36 96 36q82 0 128 -66q31 -43 31 -83q0 -61 -63 -144l-340 -449v-455q0 -89 -21 -131q-17 -34 -55.5 -56t-80.5 -22t-80.5 22t-55.5 56q-21 42 -21 131v455l-329 451 q-61 84 -61 141zM218 1658q0 65 50 110q42 39 103 39q63 0 108 -50q39 -42 39 -100q0 -67 -50 -112q-42 -38 -100 -38q-67 0 -112 50q-38 42 -38 101zM662 1658q0 65 50 110q42 39 103 39q63 0 108 -50q39 -42 39 -100q0 -67 -50 -112q-42 -38 -100 -38q-67 0 -112 50 q-38 42 -38 101z" />
<glyph unicode="&#x2c6;" d="M151 1266q0 60 67 93l253 127q18 9 43 9q21 0 35 -7l251 -127q73 -37 73 -98q0 -41 -27 -71q-29 -32 -75 -32q-24 0 -39 8l-220 118l-219 -117q-15 -8 -39 -8q-49 0 -79 39q-24 30 -24 66z" />
<glyph unicode="&#x2da;" d="M311 1357q0 87 67 147q56 52 138 52q86 0 146 -66q52 -57 52 -135q0 -90 -67 -149q-57 -52 -134 -52q-90 0 -150 66q-52 58 -52 137zM435 1355q0 -34 26 -57q22 -20 52 -20q34 0 57 26q20 21 20 52q0 33 -26 56q-22 20 -53 20q-33 0 -56 -26q-20 -22 -20 -51z" />
<glyph unicode="&#x2dc;" d="M148 1273q0 85 68 140q63 50 147 50q49 0 111 -22q16 -6 108 -53q36 -18 70 -18q25 0 38 15q6 6 19 30q26 49 77 49q42 0 67 -31q23 -27 23 -63q0 -87 -80 -146q-57 -41 -135 -41q-66 0 -155 44q-102 49 -134 49q-25 0 -43 -20q-4 -5 -28 -45q-20 -31 -63 -31t-70 29 q-20 22 -20 64z" />
<glyph unicode="&#x2000;" horiz-adv-x="938" />
<glyph unicode="&#x2001;" horiz-adv-x="1877" />
<glyph unicode="&#x2002;" horiz-adv-x="938" />
<glyph unicode="&#x2003;" horiz-adv-x="1877" />
<glyph unicode="&#x2004;" horiz-adv-x="625" />
<glyph unicode="&#x2005;" horiz-adv-x="469" />
<glyph unicode="&#x2006;" horiz-adv-x="312" />
<glyph unicode="&#x2007;" horiz-adv-x="312" />
<glyph unicode="&#x2008;" horiz-adv-x="234" />
<glyph unicode="&#x2009;" horiz-adv-x="375" />
<glyph unicode="&#x200a;" horiz-adv-x="104" />
<glyph unicode="&#x2010;" horiz-adv-x="505" d="M0 566q0 34 18 65.5t46 45.5q34 17 107 17h163q73 0 107 -17q28 -14 46 -45.5t18 -65.5q0 -35 -18 -66.5t-46 -45.5q-34 -17 -107 -17h-163q-72 0 -107 17q-28 14 -46 45.5t-18 66.5z" />
<glyph unicode="&#x2011;" horiz-adv-x="505" d="M0 566q0 34 18 65.5t46 45.5q34 17 107 17h163q73 0 107 -17q28 -14 46 -45.5t18 -65.5q0 -35 -18 -66.5t-46 -45.5q-34 -17 -107 -17h-163q-72 0 -107 17q-28 14 -46 45.5t-18 66.5z" />
<glyph unicode="&#x2012;" horiz-adv-x="505" d="M0 566q0 34 18 65.5t46 45.5q34 17 107 17h163q73 0 107 -17q28 -14 46 -45.5t18 -65.5q0 -35 -18 -66.5t-46 -45.5q-34 -17 -107 -17h-163q-72 0 -107 17q-28 14 -46 45.5t-18 66.5z" />
<glyph unicode="&#x2013;" horiz-adv-x="1092" d="M96 566q0 34 18 65.5t46 45.5q34 17 107 17h559q73 0 107 -17q28 -14 46 -45.5t18 -65.5q0 -35 -18 -66.5t-46 -45.5q-34 -17 -107 -17h-559q-72 0 -107 17q-28 14 -46 45.5t-18 66.5z" />
<glyph unicode="&#x2014;" horiz-adv-x="1529" d="M0 566q0 34 18 65.5t46 45.5q34 17 107 17h1187q73 0 107 -17q28 -14 46 -45.5t18 -65.5q0 -35 -18 -66.5t-46 -45.5q-34 -17 -107 -17h-1187q-72 0 -107 17q-28 14 -46 45.5t-18 66.5z" />
<glyph unicode="&#x2018;" horiz-adv-x="502" d="M55 1271q0 57 45 96q36 32 90 32q73 0 109 -64l161 -288q15 -28 15 -58q0 -55 -47 -97q-34 -31 -84 -31q-72 0 -107 61l-165 288q-17 30 -17 61z" />
<glyph unicode="&#x2019;" horiz-adv-x="502" d="M39 989q0 30 16 58l157 274q34 58 102 58q56 0 92 -42q32 -38 32 -80q0 -28 -15 -55l-152 -273q-34 -62 -103 -62q-61 0 -97 41q-32 37 -32 81z" />
<glyph unicode="&#x201a;" horiz-adv-x="502" d="M39 -180q0 30 16 58l157 274q33 58 102 58q56 0 92 -42q32 -38 32 -79q0 -29 -15 -55l-152 -274q-34 -61 -103 -61q-61 0 -97 41q-32 36 -32 80z" />
<glyph unicode="&#x201c;" horiz-adv-x="939" d="M55 1271q0 57 45 96q36 32 90 32q73 0 109 -64l161 -288q15 -28 15 -58q0 -55 -47 -97q-34 -31 -84 -31q-72 0 -107 61l-165 288q-17 30 -17 61zM492 1271q0 57 45 96q36 32 90 32q73 0 109 -64l160 -288q16 -28 16 -58q0 -55 -47 -97q-33 -31 -84 -31q-72 0 -107 61 l-165 288q-17 29 -17 61z" />
<glyph unicode="&#x201d;" horiz-adv-x="939" d="M27 989q0 32 17 61l165 288q35 61 107 61q60 0 97 -44q34 -40 34 -84q0 -30 -15 -57l-161 -289q-36 -64 -109 -64q-63 0 -101 43q-34 38 -34 85zM464 989q0 32 17 61l165 288q35 61 107 61q60 0 97 -44q34 -40 34 -84q0 -29 -16 -57l-160 -289q-36 -64 -109 -64 q-63 0 -101 43q-34 38 -34 85z" />
<glyph unicode="&#x201e;" horiz-adv-x="939" d="M27 -144q0 32 17 61l165 288q35 61 107 61q60 0 97 -44q34 -40 34 -84q0 -30 -15 -57l-161 -289q-36 -64 -109 -64q-63 0 -101 43q-34 38 -34 85zM464 -144q0 32 17 61l165 288q35 61 107 61q60 0 97 -44q34 -40 34 -84q0 -29 -16 -57l-160 -289q-36 -64 -109 -64 q-63 0 -101 43q-34 38 -34 85z" />
<glyph unicode="&#x2022;" horiz-adv-x="1365" d="M401 694q0 121 84 202q86 82 204 82q113 0 196 -83q84 -83 84 -201t-83 -201t-201 -83q-116 0 -199 82q-85 84 -85 202z" />
<glyph unicode="&#x2026;" horiz-adv-x="1638" d="M106 135q0 72 56 123q47 43 115 43q71 0 121 -55q43 -48 43 -112q0 -75 -55 -125q-48 -43 -112 -43q-75 0 -125 55q-43 48 -43 114zM652 135q0 72 56 123q47 43 115 43q71 0 121 -55q43 -48 43 -112q0 -75 -55 -125q-48 -43 -112 -43q-75 0 -125 55q-43 48 -43 114z M1198 135q0 72 56 123q47 43 115 43q71 0 121 -55q43 -48 43 -112q0 -75 -55 -125q-48 -43 -112 -43q-75 0 -125 55q-43 48 -43 114z" />
<glyph unicode="&#x202f;" horiz-adv-x="375" />
<glyph unicode="&#x2039;" horiz-adv-x="682" d="M113 555q0 58 51 128l173 239q45 61 111 61q53 0 89 -41q33 -38 33 -90q0 -53 -41 -96l-196 -201l196 -201q41 -43 41 -96q0 -60 -43 -100q-34 -31 -79 -31q-66 0 -111 61l-173 239q-51 70 -51 128z" />
<glyph unicode="&#x203a;" horiz-adv-x="682" d="M113 258q0 53 42 96l195 201l-195 201q-42 43 -42 96q0 60 43 100q34 31 79 31q67 0 111 -61l173 -239q51 -70 51 -128t-51 -128l-173 -239q-44 -61 -111 -61q-53 0 -89 41q-33 38 -33 90z" />
<glyph unicode="&#x205f;" horiz-adv-x="469" />
<glyph unicode="&#x2122;" horiz-adv-x="1610" d="M14 1280q0 85 117 85h365q117 0 117 -85t-117 -85h-81v-495q0 -124 -99 -124q-61 0 -87 47q-13 25 -13 77v495h-85q-117 0 -117 85zM614 670q0 14 6 44l95 557q19 106 131 106q94 0 122 -80l128 -375l119 358q31 96 128 96q50 0 87 -29q35 -28 42 -68l103 -563 q6 -31 6 -46q0 -45 -35 -73q-28 -22 -64 -22q-51 0 -78 35q-17 22 -26 74l-57 333l-106 -333q-21 -66 -40 -83q-28 -26 -74 -26q-80 0 -110 88l-120 355l-55 -334q-9 -51 -26 -73q-27 -35 -78 -35q-35 0 -62 21q-36 27 -36 73z" />
<glyph unicode="&#xe000;" horiz-adv-x="1055" d="M0 1055h1055v-1055h-1055v1055z" />
<glyph unicode="&#xfb01;" horiz-adv-x="1256" d="M819 1328q0 75 58 128q49 45 120 45q75 0 127 -58q45 -50 45 -117q0 -78 -58 -130q-50 -45 -117 -45q-78 0 -130 58q-45 50 -45 119zM841 187v664q0 85 20 126q17 33 53 54t77 21q40 0 77 -21t53 -54q20 -40 20 -126v-664q0 -86 -20 -126q-16 -32 -53 -53.5t-77 -21.5 t-76.5 21t-53.5 54q-20 40 -20 126zM0 901q0 37 19 70.5t49 48.5q36 18 114 18h13v141q0 148 99 235q91 80 229 80q80 0 127 -36q46 -36 46 -101q0 -53 -27 -88q-31 -40 -90 -43q-84 0 -84 -81v-107h53q77 0 114 -18q30 -15 49 -48t19 -70t-19 -70.5t-49 -48.5 q-37 -18 -114 -18h-53v-578q0 -86 -20 -126q-16 -32 -53 -53.5t-77 -21.5t-76.5 21t-53.5 54q-20 40 -20 126v578h-13q-77 0 -114 18q-30 15 -49 48.5t-19 69.5z" />
<glyph unicode="&#xfb02;" horiz-adv-x="1207" d="M818 187v1115q0 85 20 125q17 33 53.5 54t76.5 21t76.5 -21t53.5 -54q20 -40 20 -125v-1115q0 -86 -20 -126q-17 -33 -53.5 -54t-76.5 -21t-76.5 21t-53.5 54q-20 40 -20 126zM0 901q0 37 19 70.5t49 48.5q36 18 114 18h13v141q0 148 99 235q91 80 229 80q80 0 127 -36 q46 -36 46 -101q0 -53 -27 -88q-31 -40 -90 -43q-84 0 -84 -81v-107h53q77 0 114 -18q30 -15 49 -48t19 -70t-19 -70.5t-49 -48.5q-37 -18 -114 -18h-53v-578q0 -86 -20 -126q-16 -32 -53 -53.5t-77 -21.5t-76.5 21t-53.5 54q-20 40 -20 126v578h-13q-77 0 -114 18 q-30 15 -49 48.5t-19 69.5z" />
<glyph unicode="&#xfb03;" horiz-adv-x="1986" d="M1549 1328q0 75 58 128q49 45 120 45q75 0 127 -58q45 -50 45 -117q0 -78 -58 -130q-50 -45 -117 -45q-78 0 -130 58q-45 50 -45 119zM1571 187v664q0 85 20 126q17 33 53 54t77 21q40 0 77 -21t53 -54q20 -40 20 -126v-664q0 -86 -20 -126q-16 -32 -53 -53.5t-77 -21.5 t-76.5 21t-53.5 54q-20 40 -20 126zM730 901q0 37 19 70.5t49 48.5q36 18 114 18h13v141q0 148 99 235q91 80 229 80q80 0 127 -36q46 -36 46 -101q0 -53 -27 -88q-31 -40 -90 -43q-84 0 -84 -81v-107h53q77 0 114 -18q30 -15 49 -48t19 -70t-19 -70.5t-49 -48.5 q-37 -18 -114 -18h-53v-578q0 -86 -20 -126q-16 -32 -53 -53.5t-77 -21.5t-76.5 21t-53.5 54q-20 40 -20 126v578h-13q-77 0 -114 18q-30 15 -49 48.5t-19 69.5zM0 901q0 37 19 70.5t49 48.5q36 18 114 18h13v141q0 148 99 235q91 80 229 80q80 0 127 -36q46 -36 46 -101 q0 -53 -27 -88q-31 -40 -90 -43q-84 0 -84 -81v-107h53q77 0 114 -18q30 -15 49 -48t19 -70t-19 -70.5t-49 -48.5q-37 -18 -114 -18h-53v-578q0 -86 -20 -126q-16 -32 -53 -53.5t-77 -21.5t-76.5 21t-53.5 54q-20 40 -20 126v578h-13q-77 0 -114 18q-30 15 -49 48.5 t-19 69.5z" />
<glyph unicode="&#xfb04;" horiz-adv-x="1937" d="M1548 187v1115q0 85 20 125q17 33 53.5 54t76.5 21t76.5 -21t53.5 -54q20 -40 20 -125v-1115q0 -86 -20 -126q-17 -33 -53.5 -54t-76.5 -21t-76.5 21t-53.5 54q-20 40 -20 126zM730 901q0 37 19 70.5t49 48.5q36 18 114 18h13v141q0 148 99 235q91 80 229 80 q80 0 127 -36q46 -36 46 -101q0 -53 -27 -88q-31 -40 -90 -43q-84 0 -84 -81v-107h53q77 0 114 -18q30 -15 49 -48t19 -70t-19 -70.5t-49 -48.5q-37 -18 -114 -18h-53v-578q0 -86 -20 -126q-16 -32 -53 -53.5t-77 -21.5t-76.5 21t-53.5 54q-20 40 -20 126v578h-13 q-77 0 -114 18q-30 15 -49 48.5t-19 69.5zM0 901q0 37 19 70.5t49 48.5q36 18 114 18h13v141q0 148 99 235q91 80 229 80q80 0 127 -36q46 -36 46 -101q0 -53 -27 -88q-31 -40 -90 -43q-84 0 -84 -81v-107h53q77 0 114 -18q30 -15 49 -48t19 -70t-19 -70.5t-49 -48.5 q-37 -18 -114 -18h-53v-578q0 -86 -20 -126q-16 -32 -53 -53.5t-77 -21.5t-76.5 21t-53.5 54q-20 40 -20 126v578h-13q-77 0 -114 18q-30 15 -49 48.5t-19 69.5z" />
<glyph d="M188 1324q0 61 47 104q41 37 98 37q61 0 103 -47q37 -40 37 -95q0 -64 -47 -106q-41 -37 -95 -37q-64 0 -106 47q-37 41 -37 97zM551 1324q0 62 47 104q40 37 98 37q60 0 103 -47q37 -41 37 -95q0 -64 -47 -106q-41 -37 -96 -37q-63 0 -106 47q-36 41 -36 97z" />
<glyph d="M151 1600q0 64 67 94l253 113q21 9 42 9q20 0 36 -7l251 -114q73 -33 73 -97q0 -42 -27 -72q-30 -32 -75 -32q-21 0 -39 8l-220 105l-219 -103q-17 -9 -39 -9q-49 0 -79 39q-24 30 -24 66z" />
<glyph d="M172 1714q0 51 40 80q28 21 66 21q19 0 33 -5l309 -113q82 -30 82 -99q0 -49 -38 -82q-26 -21 -66 -21q-24 0 -46 8l-303 111q-77 29 -77 100z" />
<glyph d="M322 1598q0 70 82 99l309 113q13 5 32 5q46 0 76 -28q31 -30 31 -73q0 -71 -77 -100l-303 -111q-22 -8 -46 -8q-47 0 -75 31q-29 31 -29 72z" />
<glyph d="M140 1658q0 65 50 110q42 39 103 39q63 0 108 -50q39 -42 39 -100q0 -67 -50 -112q-42 -38 -100 -38q-67 0 -112 50q-38 42 -38 101zM584 1658q0 65 50 110q42 39 103 39q63 0 108 -50q39 -42 39 -100q0 -67 -50 -112q-42 -38 -100 -38q-67 0 -112 50q-38 42 -38 101z " />
<glyph d="M148 1608q0 85 68 140q63 50 147 50q49 0 111 -23q16 -6 108 -52q36 -19 70 -19q25 0 38 15q6 7 19 30q26 50 77 50q42 0 67 -31q23 -27 23 -63q0 -88 -80 -146q-57 -42 -135 -42q-66 0 -155 44q-101 50 -134 50q-25 0 -43 -20q-4 -5 -28 -44q-20 -32 -63 -32t-70 29 q-20 22 -20 64z" />
<glyph d="M184 1658q0 61 47 104q41 37 98 37q61 0 103 -47q37 -40 37 -95q0 -64 -47 -106q-41 -37 -95 -37q-64 0 -106 47q-37 41 -37 97zM554 1658q0 61 47 104q40 37 98 37q60 0 103 -47q37 -40 37 -95q0 -64 -47 -106q-41 -37 -96 -37q-63 0 -106 47q-36 41 -36 97z" />
<glyph d="M311 1678q0 87 67 147q57 52 138 52q86 0 146 -66q52 -57 52 -135q0 -90 -67 -149q-57 -52 -134 -52q-90 0 -150 66q-52 58 -52 137zM441 1676q0 -31 24 -53q20 -18 48 -18q31 0 53 24q18 20 18 48q0 30 -24 52q-20 18 -48 18q-31 0 -53 -24q-18 -20 -18 -47z" />
</font>
</defs>
</svg>
